<?xml version="1.0" encoding="UTF-8"?>
<svg id="Layer_1" xmlns="http://www.w3.org/2000/svg" version="1.1" viewBox="0 0 1305.16 458.4">
  <!-- Generator: Adobe Illustrator 29.7.1, SVG Export Plug-In . SVG Version: 2.1.1 Build 8)  -->
  <defs>
    <style>
      .st0 {
        fill: #7fcef3;
      }

      .st1 {
        fill: #fff;
      }

      .st2 {
        fill: #0673a8;
      }
    </style>
  </defs>
  <g>
    <rect class="st2" width="448.04" height="458.4"/>
    <path class="st1" d="M308.38,321.11c-29.69,33.22-72.8,54.07-120.87,54.07-43.19,0-82.41-16.89-111.53-44.39-1.7-1.63-3.32-3.25-5.02-4.95l-4.81,4.17c1.63,1.7,3.25,3.39,5.02,4.95,30.18,28.91,71.25,46.65,116.34,46.65,52.02,0,98.46-23.54,129.42-60.5h-8.55Z"/>
    <path class="st1" d="M24.6,214.25c0,42.2,15.97,82.13,44.95,112.74l-2.12,1.91c-29.47-31.03-45.66-71.6-45.66-114.64s17.1-85.88,48.13-117.33h4.1c-31.45,30.74-49.4,73.29-49.4,117.32Z"/>
    <path class="st1" d="M170.14,241.45h-57.93v53.73h64.56v16.14h-83.79v-149.02h80.48v16.14h-61.24v47.1h57.93v15.91h0Z"/>
    <path class="st1" d="M192.01,285.68c8.62,5.3,21.23,9.73,34.49,9.73,19.68,0,31.18-10.39,31.18-25.43,0-13.92-7.96-21.89-28.08-29.62-24.32-8.62-39.35-21.23-39.35-42.23,0-23.22,19.23-40.46,48.2-40.46,15.26,0,26.31,3.54,32.94,7.3l-5.3,15.7c-4.86-2.65-14.81-7.08-28.3-7.08-20.34,0-28.08,12.16-28.08,22.33,0,13.93,9.07,20.78,29.63,28.74,25.2,9.73,38.03,21.89,38.03,43.78,0,22.99-17.02,42.89-52.18,42.89-14.37,0-30.07-4.2-38.03-9.5l4.85-16.15Z"/>
    <path class="st1" d="M316.93,162.3v149.02h-19.23v-149.02h19.23Z"/>
    <polygon class="st0" points="357.74 109.24 357.74 239.25 422.74 174.25 357.74 109.24"/>
    <polygon class="st0" points="447.4 174.25 394.39 227.26 394.39 209.23 429.37 174.25 394.39 139.26 394.39 121.24 447.4 174.25"/>
    <polygon class="st0" points="465.01 174.25 426.07 213.19 426.07 202.56 454.38 174.25 426.07 145.01 426.07 135.3 465.01 174.25"/>
    <path class="st1" d="M324.31,123.47c-1.19-2.02-8.81-2.5-17.72-1.01-8.81,1.46-15.81,4.3-16.4,6.6-.03-.25-.04-.5-.03-.76,0-1.35.16-2.69.47-4,.02-.05.03-.11.05-.16,2.28-9.34,11.7-15.06,21.04-12.78,3.39.83,6.46,2.66,8.79,5.25.65.71,1.24,1.48,1.75,2.29.9,1.42,1.59,2.96,2.05,4.57Z"/>
    <path class="st1" d="M325,128.3c0,.21,0,.4-.02.61v.24c-.04.8-.13,1.59-.29,2.38-1.51,8.07-8.6,14.19-17.11,14.19-5.44,0-10.57-2.54-13.85-6.87-1.03-1.32-1.85-2.8-2.44-4.37-.14-.39-.29-.77-.4-1.17-.34-1.13-.56-2.29-.66-3.47v-.03c-.03-.25-.05-.5-.05-.75.59-2.3,7.59-5.14,16.4-6.6,8.91-1.49,16.53-1.01,17.72,1.01.06.21.13.42.18.63.3,1.18.46,2.38.5,3.6.02.2.02.39.02.6Z"/>
    <path class="st0" d="M322.25,118.91c-4.54-.11-10.09.3-16.03,1.3-5.92.98-11.32,2.38-15.55,3.93-6.13,2.23-9.89,4.8-9.53,6.92.34,2.01,4.27,3.18,10.16,3.42-.14-.39-.29-.77-.4-1.17-.34-1.13-.56-2.29-.66-3.47v-.03c-.04-.07-.07-.16-.08-.24-.03-.17-.02-.35.03-.51.59-2.3,7.59-5.14,16.4-6.6,8.91-1.49,16.53-1.01,17.72,1.01.08.12.13.26.16.4.01.07.02.15.02.22.3,1.18.46,2.38.5,3.6.02.21.02.4.02.61s0,.4-.02.61c5.52-2.15,8.84-4.53,8.51-6.53-.37-2.12-4.76-3.32-11.25-3.47Z"/>
  </g>
  <polygon class="st2" points="1090.71 58.2 1085.92 56.01 1087.31 50.38 1091.92 52.85 1090.71 58.2"/>
  <path class="st2" d="M772.63,113.43c.51-6.59.74-14.42,4.9-21.07.63-1.02,1.76-1.61,2.96-1.61,3.03,0,7.55.02,10.17.15,0,0-.3,12.47-.17,16.96.04,1.51.17,5.58.17,5.58,0,0,15.67-.02,23.66-.05.15-2.73.38-4.98.38-7.23,0-15.13.1-30.26-.19-45.38-.08-4.17-1.19-8.37-2.18-12.47-.62-2.58-1.07-4.68.98-6.98,1.71-1.91,2.74-4.59,4.32-7.29.49-.05,1.37,0,2.5-.1v90.98c-1.63,2.96-4.57,2.55-7.23,2.55-8.44-.02-16.88-.29-25.32-.24-13.26.08-26.52.44-39.78.48-22.46.07-44.92.01-67.38-.07-5.25-.02-15.08-.37-20.34-.46,0,0-1.32,18.93-5.75,24.92-2.38,3.21-5.1,6.43-9.85,5.96-.51-.05-.99-.33-1.52-.51,2.77-3,5.33-6.69,7.02-9.3,1.41-2.18,2.41-4.59,2.96-7.12.97-4.48,2.18-11.53.88-14.29-12.57-.24-11.81-9.63-11.93-16.76-.29-7.94,3.1-22.67,10.81-21.66s6.22,15.59,7.35,23.85l22.57.06c-.13-1.92-.39-4.05-.39-6.18-.04-17.65,0-35.29-.12-52.94-.01-1.62-1.11-3.21-1.42-4.86-.29-1.55-.73-3.4-.17-4.72,1.38-3.23,3.71-4.08,5.37-9.98.37.04,1.54.18,3.27.37v79.67c12.18-.31,23.74.22,35.63-.47-.21-2.59-.36-4.41-.53-6.52-3.88-1.63-5.42-4.98-4.55-8.77,1.15-5.04,2.06-10.5,6.98-13.65,4.16-2.66,10.28-.52,12.49,3.93,3.92,7.88,2.95,17.04,1.87,25.21.03,0,31.53.05,31.58,0ZM733.47,107.97c1.97-2.52,1.84-5.38,1.46-8.29-.25-1.94-.23-4.15-2.91-4.39-2.71-.25-3.89,1.43-4.4,3.84,1.36,3.22,1.68,7.07,5.85,8.84ZM654.21,112.78c.09-2.45.42-5.02.15-7.51-.09-.84-1.17-2.09-2.67-2.09-.92,0-2.31,1.21-2.63,2.17-.42,2.17-.25,4.84-.25,4.84.41,2.76,1.83,3.18,5.4,2.59ZM784.35,103.51c-3.61-.9-5-.44-5.18,2.83-.07,1.3-.19,2.63-.06,3.92.31,3.06,1.63,3.17,5.12,2.28,0-2.86.12-6.11.12-9.03Z"/>
  <path class="st2" d="M1043.44,113.46c-1.89-.14-4.01-.56-5.54-1.58-7.92-5.23-7.86-17.39-1.46-24.64,3.03-3.42,7.79-5.32,12.36-8.29v-3.34c-2.31.25-4.51.7-6.57,1.3-3.23.93-6.18,2.57-8.69,4.81-5.73,5.12-7.99,10.36-8.44,16.88-.54,6.14,2.36,12.85,3.91,14.54h-50.18V34.48l-2.01.03c-1.28,3.18-3.74,6.32-5.02,8.04-.54.71-.74,1.62-.57,2.5,1.17,5.76,2.68,10.72,2.83,15.73.4,13.14.07,26.3.05,39.45-.01,4.11-.01,13.1-.01,13.1l-36.15.08v-.04l-14.02-.17-.19-1.96c-1.02-8.32.27-22.38-7.29-23.37-7.71-1.01-11.1,13.73-10.81,21.67.11,7.13-.65,16.52,11.93,16.76,1.3,2.76.09,9.81-.88,14.29-.56,2.54-1.56,4.94-2.97,7.12-1.69,2.62-4.25,6.31-7.02,9.31.53.18,1.01.46,1.52.51,4.75.47,7.48-2.75,9.85-5.96,4.43-5.99,5.75-24.92,5.75-24.92,3.34.06,8.53.22,13.21.34h0c12.98.19,29.31.5,41.52.52,22.89.02,45.79-.13,68.68-.36,1.23-.02,2.93-1.21,3.58-2.34,1.91-3.33,5.53-11.35,5.53-11.35,0,0-9.74.22-12.9,0ZM917.94,112.25c-3.58.59-5,.17-5.4-2.6,0,0-.17-2.67.25-4.84.31-.96,1.71-2.17,2.63-2.17,1.49,0,2.57,1.25,2.66,2.09.28,2.5-.05,5.06-.14,7.52Z"/>
  <path class="st2" d="M1200.66,108.55c.03-.4.58-.47.72-.09,2.31,5.96,7.74,5.13,12.79,5.13,13.48,0,26.97-.02,40.45-.01,2.41,0,4.81.1,4.97-3.25.11-2.39-2.37-4.77-5.28-4.78-12.94-.04-25.87.01-38.81.03h-6.83c-7.11-9.3-9.16-14.08-2.84-23.03,1.03,1.92,2.04,3.67,2.93,5.48,1.89,3.86,5.02,5.62,9.24,5.59,12.72-.07,25.43-.13,38.15-.23,5.03-.04,7.36,1.81,7.93,6.75.47,4.1,1.06,12.87,1.06,12.87,0,0,14.52.21,22.24.49.36-6.75.57-13.06,3.66-18.92,1.08-2.06,3.26-3.31,5.58-3.31h8.53l-.61,35.97h-114.27c.58-5.23,9.23-3.71,10.39-18.69ZM1299.27,112.97c.2-2.67.5-10.13.5-10.13,0,0-4.94-.64-5.59,3.15-.31,2.61-.01,4.04-.01,6.97,2.1,0,3.4,0,5.1,0Z"/>
  <path class="st2" d="M1089.08,90.54c.23-3.61,2.16-7.16-.97-10.55-.59-.64-.89-2.25-.5-2.99,2.61-4.96,5.44-9.81,8.56-15.34.25,1.7.66,3.15.66,4.6-.03,14.02.01,45.05.13,46.79h19.47s.41-5.46-.36-8.49c-.3-1.19-2.71-3.65-3.01-4.8,2.45-5.22,4.95-10.55,7.46-15.88l.78-.12c.15,1.46.44,2.93.44,4.39.02,7.78-.03,15.55-.03,23.33,0,.41.22.83.54,1.96,1.91-.09,6.79-.31,6.79-.31,0,0,.19-7.49-.46-11.33-.31-1.84-2.13-4-2.46-5.95,2.02-3.97,4.49-8.83,6.96-13.69.26.02.53.04.79.06v30.95c2.02,0,3.74.49,4.73-.15.89-.58,1.32-2.37,1.38-3.65.13-2.72.05-5.47-.27-8.17-.23-1.87-1.05-3.65-1.54-5.5-.29-1.11-.95-2.5-.55-3.34,2.43-5.06,5.12-10,8.2-15.88.36,2.09.76,3.37.76,4.65.05,13.59.05,27.17-.01,40.76-.01,1.68-.49,3.35-.81,5.41h-65.12c-.42-1.67-1.01-2.97-1.02-4.27-.05-7.34-.03-14.68.11-22.01.1-5.19,3.78-9.43,9.35-10.48ZM1088.41,113.46v-10.83s-4.28.39-3.89,6.46c.24,4.37,3.89,4.37,3.89,4.37Z"/>
  <path class="st2" d="M565.66,33.77h3.11v79.66c1.3.36,40.7,0,40.45,0,0-3.43.07-7.29-.02-10.42-.05-1.92.55-4.31,1.56-6.48,1.61-3.45,4.98-5.65,8.78-5.81,2.1-.09,4.29.16,6.65,1.15,0,2.9.01,5.83,0,8.75-.04,7.34-.13,14.67-.13,22.01,0,2.83-.87,4.67-4.08,4.68-17.74.03-35.47.21-53.21.05-5.93-.05-6.14-.9-6.16-6.67-.08-21.24-.3-42.48-.48-63.72-.03-3.46.41-6.94-1.73-10.18-.58-.88.15-2.92.73-4.23,1.27-2.82,3.17-3.03,4.53-8.79ZM619.33,102.44c.07.17-4.08-.45-4.51,1.74-.21,2.24-.55,6.35.02,9.01.12.58,4.53.33,4.53.22,0-3.84-.04-6.77-.04-10.97Z"/>
  <path class="st2" d="M875.09,165.09c-1.03-2.37-1.95-4.8-3.13-7.1-.78-1.52-1.79-2.97-2.94-4.23-1.3-1.42-1.6-2.74-.63-4.43.48-.84.98-1.79,1.06-2.72.49-5.63,1.08-11.27,1.22-16.92.18-7,.2-14.46.13-20.99.08-6.09.37-12.88,5.13-17.88,1.07-1.12,2.8-2.04,4.32-2.21,3.25-.35,6.65-.64,9.8-.01,2.34.47,5.01,1.98,6.37,3.87,1.57,2.18,2.46,5.25,2.58,7.98.34,7.76.15,15.54.13,23.31,0,.83-.32,1.67-.53,2.67-4.07.97-8.17,1.06-11.64-.66-3.34-1.65-4.65-5.39-4.92-9.1-.23-3.14-.02-12.13-.48-13.29-3.57-.12-5.07,1.92-5.07,4.11-.02,6.9.05,13.8.07,20.69.03,11.28.05,22.56.05,33.83,0,.99-.25,1.99-.38,2.98-.39.05-.76.07-1.14.1ZM887.41,111.06c.9,1.92,4.4,1.59,5.41,1.12,0,0-.24-5.77-.28-7.12-.35-2.47-4.91-2.17-5.64-1.92,0,.01-.27,6.26.51,7.92Z"/>
  <path class="st2" d="M537.13,113.56v-15.96c0-.1-.03-.24-.1-.31-4.06-3.64-1.29-6.16,1.09-9.25,3.05-2.88,5.04-9,5.98-10.36.37,2.1.46,47.7.15,49.35h-55.16c2.61-5.88,10.01-6.61,9.62-20.14,1.2,1.33,2.06,3.25,3.81,4.79,1.06.93,2.19,1.86,3.53,1.88,8.87.16,31.08,0,31.08,0Z"/>
  <path class="st2" d="M833.83,33.93h2.41v12.59c0,22.25-.02,44.49.01,66.74,0,3.5-.21,7.09.46,10.49.59,3,2.26,5.79,3.53,8.85,2.28.5,4.53,1,7.29,1.6-2.3,4.2-6.09,5.44-9.34,6.65-6.25-5.23-8.38-12.25-8.52-19.45-.38-21.03-.03-42.08-.16-63.12-.02-3.4-1.23-6.77-1.54-10.18-.18-1.96-.06-4.14.66-5.93,1.09-2.69,3.26-3.62,5.2-8.24Z"/>
  <path class="st2" d="M1173.84,80.02c.15,1.45.42,2.89.42,4.34.01,13.91.12,20.63-.05,34.54-.02,1.86-.45,8.24-.82,13.42-.21,2.91-.71,5.79-1.54,8.59-1.31,4.39-3.62,10.82-7.22,14.14-2.1,1.93-4.41,3.5-6.99,2.33,1.56-2.48,3.06-4.62,4.43-7.09.35-.64.66-1.3.94-1.98,1.72-4.13,3.61-8.42,3.89-12.73.66-10.26.33-20.58.16-30.88-.03-2.07-1.23-4.1-1.66-6.2-.29-1.4-.69-3.14-.14-4.3,2.13-4.48,4.62-8.79,6.98-13.16.2-.36.46-.69.69-1.03.29,0,.6,0,.91,0Z"/>
  <polygon class="st2" points="1085.38 63.53 1080.59 61.34 1081.98 55.71 1086.59 58.18 1085.38 63.53"/>
  <g>
    <polygon class="st2" points="526.37 87.98 521.58 85.8 522.97 80.17 527.58 82.63 526.37 87.98"/>
    <polygon class="st2" points="521.04 93.32 516.25 91.13 517.64 85.5 522.25 87.96 521.04 93.32"/>
  </g>
  <g>
    <path class="st2" d="M521.13,318.6h-32.03v-61.69h32.03v8.22h-23.09v18.43h23.09v8.05h-23.09v18.47h23.09v8.52Z"/>
    <path class="st2" d="M588.2,303.13c-2.68,5.39-6.39,9.53-11.12,12.39-4.73,2.87-10.22,4.3-16.46,4.3-4.63,0-8.9-.89-12.82-2.67-3.91-1.78-7.42-4.42-10.53-7.92-2.63-2.91-4.62-6.22-5.97-9.94-1.36-3.71-2.03-7.69-2.03-11.93s.82-8.37,2.46-12.22c1.64-3.86,4.04-7.36,7.2-10.53,2.99-2.94,6.32-5.16,9.98-6.67s7.59-2.27,11.8-2.27c6.33,0,11.88,1.5,16.67,4.49s8.4,7.23,10.83,12.71h-10.51c-1.98-2.74-4.41-4.8-7.29-6.19-2.88-1.38-6.14-2.08-9.79-2.08-2.91,0-5.68.55-8.3,1.65-2.63,1.1-4.96,2.7-6.99,4.79-2.12,2.18-3.77,4.7-4.96,7.58-1.19,2.88-1.78,5.82-1.78,8.81,0,3.22.54,6.26,1.61,9.13s2.61,5.35,4.62,7.44c2.12,2.2,4.56,3.91,7.33,5.13,2.77,1.21,5.59,1.82,8.47,1.82,3.53,0,6.72-.67,9.55-2.01,2.84-1.34,5.17-3.28,7.01-5.83h11.02v.02Z"/>
    <path class="st2" d="M594.51,287.37c0-4.32.82-8.42,2.46-12.29s4.04-7.36,7.2-10.47c2.99-2.94,6.32-5.16,9.98-6.67s7.59-2.27,11.8-2.27,8.33.76,12.01,2.27c3.69,1.51,7.05,3.76,10.1,6.76,3.14,3.08,5.49,6.52,7.08,10.34,1.58,3.81,2.37,7.92,2.37,12.33s-.68,8.41-2.03,12.1c-1.36,3.69-3.39,7-6.1,9.94-3.19,3.45-6.76,6.04-10.7,7.8-3.94,1.75-8.21,2.63-12.82,2.63s-8.9-.89-12.82-2.67c-3.91-1.78-7.42-4.42-10.53-7.92-2.63-2.91-4.62-6.22-5.97-9.94-1.35-3.73-2.03-7.7-2.03-11.94ZM603.83,287.45c0,3.22.54,6.26,1.61,9.13s2.61,5.35,4.62,7.44c2.12,2.2,4.56,3.91,7.33,5.13,2.77,1.21,5.59,1.82,8.47,1.82,6.38,0,11.72-2.27,16.01-6.8,4.29-4.53,6.44-10.16,6.44-16.88,0-2.85-.52-5.57-1.55-8.16-1.03-2.58-2.54-4.96-4.51-7.14-2.34-2.51-4.85-4.37-7.52-5.57-2.67-1.2-5.63-1.8-8.88-1.8-2.91,0-5.68.55-8.3,1.65-2.63,1.1-4.96,2.7-6.99,4.79-2.12,2.18-3.77,4.7-4.96,7.58-1.18,2.88-1.77,5.82-1.77,8.81Z"/>
    <path class="st2" d="M694.75,318.6h-29.15v-61.69h8.94v53.17h20.21v8.52Z"/>
    <path class="st2" d="M733.98,318.6h-32.03v-61.69h32.03v8.22h-23.09v18.43h23.09v8.05h-23.09v18.47h23.09v8.52Z"/>
    <path class="st2" d="M786.65,318.6h-17.33v-61.69h19.87c9.26,0,16.74,2.87,22.43,8.6s8.54,13.22,8.54,22.46c0,5.25-1.07,10.04-3.2,14.36-2.13,4.32-5.2,7.92-9.22,10.8-2.71,1.95-5.61,3.35-8.69,4.19-3.07.85-7.2,1.28-12.4,1.28ZM778.01,310.33h10.85c6.86,0,12.29-2,16.29-6s6-9.43,6-16.29-2.12-12.68-6.36-16.69-10.1-6.02-17.58-6.02h-9.19v45h0Z"/>
    <path class="st2" d="M860.41,318.6h-32.03v-61.69h32.03v8.22h-23.09v18.43h23.09v8.05h-23.09v18.47h23.09v8.52h0Z"/>
    <path class="st2" d="M868.08,300.8h8.01c.14,3.19,1.09,5.74,2.84,7.65s4.02,2.86,6.82,2.86c3.08,0,5.54-.95,7.39-2.86,1.85-1.91,2.77-4.45,2.77-7.65,0-2.8-.68-4.96-2.03-6.48-1.36-1.53-4.19-2.95-8.52-4.28-.23-.06-.61-.16-1.14-.3-5.17-1.38-8.91-3.66-11.23-6.82-1.04-1.38-1.83-2.86-2.35-4.43-.52-1.57-.78-3.24-.78-5.02,0-5.28,1.57-9.55,4.7-12.82,3.14-3.26,7.24-4.89,12.33-4.89,4.72,0,8.52,1.46,11.42,4.38,2.89,2.92,4.5,6.93,4.81,12.01h-8.35c-.14-2.46-.97-4.44-2.48-5.95s-3.41-2.27-5.7-2.27c-2.46,0-4.46.84-6,2.52s-2.31,3.85-2.31,6.5c0,.93.14,1.81.42,2.63.28.82.72,1.58,1.31,2.29,1.21,1.44,3.81,2.68,7.8,3.73,1.84.48,3.25.89,4.24,1.23,4.07,1.53,7.15,3.74,9.26,6.65,2.1,2.91,3.16,6.4,3.16,10.46,0,5.96-1.69,10.76-5.08,14.41-3.39,3.64-7.88,5.46-13.47,5.46-5.25,0-9.53-1.74-12.82-5.23-3.29-3.48-4.96-8.07-5.02-13.78Z"/>
    <path class="st2" d="M934.13,300.8h8.01c.14,3.19,1.09,5.74,2.84,7.65s4.03,2.86,6.82,2.86c3.08,0,5.54-.95,7.39-2.86,1.85-1.91,2.78-4.45,2.78-7.65,0-2.8-.68-4.96-2.03-6.48-1.36-1.53-4.19-2.95-8.52-4.28-.23-.06-.61-.16-1.14-.3-5.17-1.38-8.91-3.66-11.23-6.82-1.04-1.38-1.83-2.86-2.35-4.43-.52-1.57-.78-3.24-.78-5.02,0-5.28,1.57-9.55,4.7-12.82,3.14-3.26,7.25-4.89,12.33-4.89,4.72,0,8.52,1.46,11.42,4.38,2.89,2.92,4.5,6.93,4.81,12.01h-8.35c-.14-2.46-.97-4.44-2.48-5.95s-3.41-2.27-5.7-2.27c-2.46,0-4.46.84-6,2.52s-2.31,3.85-2.31,6.5c0,.93.14,1.81.42,2.63.28.82.72,1.58,1.31,2.29,1.21,1.44,3.81,2.68,7.8,3.73,1.84.48,3.25.89,4.24,1.23,4.07,1.53,7.15,3.74,9.26,6.65s3.16,6.4,3.16,10.46c0,5.96-1.69,10.76-5.08,14.41-3.39,3.64-7.88,5.46-13.47,5.46-5.25,0-9.53-1.74-12.82-5.23-3.3-3.48-4.97-8.07-5.03-13.78Z"/>
    <path class="st2" d="M1034.76,303.13c-2.69,5.39-6.39,9.53-11.12,12.39-4.73,2.87-10.22,4.3-16.46,4.3-4.63,0-8.9-.89-12.82-2.67-3.91-1.78-7.42-4.42-10.53-7.92-2.63-2.91-4.62-6.22-5.97-9.94-1.36-3.71-2.03-7.69-2.03-11.93s.82-8.37,2.46-12.22c1.64-3.86,4.04-7.36,7.2-10.53,2.99-2.94,6.32-5.16,9.98-6.67s7.59-2.27,11.8-2.27c6.33,0,11.88,1.5,16.67,4.49,4.79,2.99,8.4,7.23,10.83,12.71h-10.51c-1.98-2.74-4.41-4.8-7.29-6.19-2.88-1.38-6.14-2.08-9.79-2.08-2.91,0-5.68.55-8.3,1.65-2.63,1.1-4.96,2.7-6.99,4.79-2.12,2.18-3.77,4.7-4.96,7.58-1.18,2.88-1.78,5.82-1.78,8.81,0,3.22.54,6.26,1.61,9.13s2.61,5.35,4.62,7.44c2.12,2.2,4.56,3.91,7.33,5.13,2.77,1.21,5.59,1.82,8.47,1.82,3.53,0,6.72-.67,9.55-2.01,2.84-1.34,5.18-3.28,7.01-5.83h11.02v.02Z"/>
    <path class="st2" d="M1051.28,318.6h-8.94v-61.69h8.94v61.69Z"/>
    <path class="st2" d="M1094.07,318.6h-32.03v-61.69h32.03v8.22h-23.09v18.43h23.09v8.05h-23.09v18.47h23.09v8.52Z"/>
    <path class="st2" d="M1113.94,318.6h-8.94v-61.69h9.19l30.29,46.69-.42-46.69h8.81v61.69h-8.56l-30.97-48.09.6,48.09Z"/>
    <path class="st2" d="M1221.39,303.13c-2.69,5.39-6.39,9.53-11.12,12.39-4.73,2.87-10.22,4.3-16.46,4.3-4.63,0-8.9-.89-12.82-2.67-3.91-1.78-7.42-4.42-10.53-7.92-2.63-2.91-4.62-6.22-5.97-9.94-1.36-3.71-2.03-7.69-2.03-11.93s.82-8.37,2.46-12.22c1.64-3.86,4.04-7.36,7.2-10.53,2.99-2.94,6.32-5.16,9.98-6.67s7.59-2.27,11.8-2.27c6.33,0,11.88,1.5,16.67,4.49s8.4,7.23,10.83,12.71h-10.51c-1.98-2.74-4.41-4.8-7.29-6.19-2.88-1.38-6.14-2.08-9.79-2.08-2.91,0-5.68.55-8.3,1.65-2.63,1.1-4.96,2.7-6.99,4.79-2.12,2.18-3.77,4.7-4.96,7.58-1.18,2.88-1.78,5.82-1.78,8.81,0,3.22.54,6.26,1.61,9.13s2.61,5.35,4.62,7.44c2.12,2.2,4.56,3.91,7.33,5.13,2.77,1.21,5.59,1.82,8.47,1.82,3.53,0,6.72-.67,9.55-2.01,2.84-1.34,5.18-3.28,7.01-5.83h11.02v.02Z"/>
    <path class="st2" d="M1261.01,318.6h-32.03v-61.69h32.03v8.22h-23.09v18.43h23.09v8.05h-23.09v18.47h23.09v8.52Z"/>
    <path class="st2" d="M1268.67,300.8h8.01c.14,3.19,1.09,5.74,2.84,7.65s4.03,2.86,6.82,2.86c3.08,0,5.54-.95,7.39-2.86,1.85-1.91,2.78-4.45,2.78-7.65,0-2.8-.68-4.96-2.03-6.48-1.36-1.53-4.19-2.95-8.52-4.28-.23-.06-.61-.16-1.14-.3-5.17-1.38-8.91-3.66-11.23-6.82-1.04-1.38-1.83-2.86-2.35-4.43s-.78-3.24-.78-5.02c0-5.28,1.57-9.55,4.7-12.82,3.14-3.26,7.25-4.89,12.33-4.89,4.72,0,8.52,1.46,11.42,4.38,2.89,2.92,4.5,6.93,4.81,12.01h-8.35c-.14-2.46-.97-4.44-2.48-5.95s-3.41-2.27-5.7-2.27c-2.46,0-4.46.84-6,2.52s-2.31,3.85-2.31,6.5c0,.93.14,1.81.42,2.63s.72,1.58,1.31,2.29c1.21,1.44,3.81,2.68,7.8,3.73,1.84.48,3.25.89,4.24,1.23,4.07,1.53,7.15,3.74,9.26,6.65,2.1,2.91,3.16,6.4,3.16,10.46,0,5.96-1.69,10.76-5.08,14.41-3.39,3.64-7.88,5.46-13.47,5.46-5.25,0-9.53-1.74-12.82-5.23-3.3-3.48-4.97-8.07-5.03-13.78Z"/>
    <path class="st2" d="M508.46,423.39h-19.36v-68.94h22.21c10.35,0,18.71,3.2,25.07,9.61,6.36,6.41,9.54,14.77,9.54,25.09,0,5.87-1.19,11.22-3.57,16.05s-5.82,8.85-10.3,12.07c-3.03,2.18-6.27,3.74-9.71,4.69-3.45.96-8.07,1.43-13.88,1.43ZM498.8,414.16h12.12c7.67,0,13.74-2.23,18.2-6.7,4.47-4.47,6.7-10.53,6.7-18.2s-2.37-14.17-7.1-18.65c-4.73-4.48-11.28-6.72-19.65-6.72h-10.27v50.27Z"/>
    <path class="st2" d="M591.37,423.39h-35.79v-68.94h35.79v9.19h-25.8v20.6h25.8v9h-25.8v20.64h25.8v9.51Z"/>
    <path class="st2" d="M666.2,423.39h-32.57v-68.94h9.99v59.42h22.58v9.52Z"/>
    <path class="st2" d="M712.95,423.39h-9.99v-68.94h9.99v68.94Z"/>
    <path class="st2" d="M735.45,423.39h-9.99v-68.94h10.27l33.85,52.18-.47-52.18h9.85v68.94h-9.56l-34.61-53.74.66,53.74Z"/>
    <path class="st2" d="M791.28,423.39v-68.94h33.95v9.19h-24.05v20.6h24.05v9h-24.05v30.16h-9.9Z"/>
    <path class="st2" d="M835.09,388.5c0-4.83.91-9.41,2.75-13.73,1.83-4.32,4.51-8.22,8.05-11.69,3.35-3.28,7.06-5.77,11.15-7.46s8.48-2.53,13.19-2.53,9.3.85,13.42,2.53c4.12,1.69,7.88,4.21,11.29,7.55,3.5,3.44,6.14,7.29,7.91,11.55,1.77,4.26,2.65,8.85,2.65,13.78s-.76,9.4-2.27,13.52c-1.52,4.12-3.79,7.82-6.82,11.1-3.57,3.85-7.55,6.76-11.95,8.71-4.4,1.96-9.18,2.94-14.32,2.94s-9.95-.99-14.32-2.98c-4.37-1.99-8.29-4.94-11.77-8.85-2.94-3.25-5.16-6.95-6.68-11.1-1.52-4.17-2.28-8.61-2.28-13.34ZM845.51,388.59c0,3.6.6,7,1.8,10.2s2.92,5.97,5.16,8.31c2.37,2.46,5.1,4.37,8.19,5.73,3.09,1.36,6.25,2.04,9.47,2.04,7.13,0,13.1-2.53,17.9-7.6,4.8-5.07,7.2-11.36,7.2-18.87,0-3.19-.58-6.23-1.73-9.11-1.15-2.89-2.83-5.55-5.04-7.98-2.62-2.81-5.42-4.88-8.4-6.23-2.98-1.34-6.29-2.01-9.92-2.01-3.25,0-6.34.62-9.28,1.85-2.93,1.23-5.54,3.01-7.81,5.35-2.37,2.43-4.21,5.26-5.54,8.48-1.34,3.21-2,6.5-2,9.84Z"/>
    <path class="st2" d="M925.01,423.39h-9.99v-68.94h19.89c8.27,0,14.58,1.91,18.94,5.73s6.53,9.34,6.53,16.57c0,5.62-1.82,10.31-5.47,14.09-3.64,3.77-8.34,5.8-14.08,6.08l19.55,26.47h-12.5l-22.87-32.01v32.01h0ZM925.01,390.25h5.11c6.91,0,12.06-1.12,15.43-3.36,3.38-2.24,5.07-5.65,5.07-10.23s-1.45-7.72-4.36-9.8c-2.9-2.08-7.5-3.12-13.78-3.12h-7.48v26.51h.01Z"/>
    <path class="st2" d="M979.9,423.39h-9.61v-68.94h14.82l19.98,53.31,19.98-53.31h14.63v68.94h-9.37l.66-59.85-22.39,59.85h-7.1l-22.3-59.85.7,59.85Z"/>
    <path class="st2" d="M1061.72,403.32l-7.77,20.07h-10.56l26.94-68.94h9.71l26.94,68.94h-10.94l-7.57-20.07h-26.75ZM1084.87,393.61l-9.71-26.18-9.9,26.18h19.61Z"/>
    <path class="st2" d="M1128.87,423.39h-9.99v-59.66h-12.88v-9.28h35.75v9.28h-12.88v59.66Z"/>
    <path class="st2" d="M1158.94,423.39h-9.99v-68.94h9.99v68.94Z"/>
    <path class="st2" d="M1168.33,388.5c0-4.83.92-9.41,2.75-13.73s4.51-8.22,8.05-11.69c3.35-3.28,7.06-5.77,11.15-7.46s8.48-2.53,13.19-2.53,9.3.85,13.42,2.53c4.12,1.69,7.88,4.21,11.29,7.55,3.5,3.44,6.14,7.29,7.91,11.55,1.77,4.26,2.65,8.85,2.65,13.78s-.76,9.4-2.27,13.52c-1.52,4.12-3.79,7.82-6.82,11.1-3.57,3.85-7.55,6.76-11.96,8.71-4.4,1.96-9.18,2.94-14.32,2.94s-9.95-.99-14.32-2.98c-4.37-1.99-8.29-4.94-11.77-8.85-2.93-3.25-5.16-6.95-6.68-11.1-1.51-4.17-2.27-8.61-2.27-13.34ZM1178.75,388.59c0,3.6.6,7,1.8,10.2,1.2,3.2,2.92,5.97,5.16,8.31,2.37,2.46,5.1,4.37,8.19,5.73,3.09,1.36,6.25,2.04,9.47,2.04,7.13,0,13.1-2.53,17.9-7.6s7.2-11.36,7.2-18.87c0-3.19-.58-6.23-1.73-9.11-1.15-2.89-2.83-5.55-5.04-7.98-2.62-2.81-5.42-4.88-8.4-6.23-2.98-1.34-6.29-2.01-9.92-2.01-3.25,0-6.35.62-9.28,1.85-2.94,1.23-5.54,3.01-7.81,5.35-2.37,2.43-4.21,5.26-5.54,8.48-1.34,3.21-2,6.5-2,9.84Z"/>
    <path class="st2" d="M1258.25,423.39h-9.99v-68.94h10.27l33.85,52.18-.47-52.18h9.85v68.94h-9.56l-34.61-53.74.66,53.74Z"/>
  </g>
  <g>
    <path class="st2" d="M516.05,201.43h-10.5v19.33h-5.88v-19.33h-10.57v-5.82h10.57v-19.33h5.88v19.33h10.5v5.82h0Z"/>
    <path class="st2" d="M533.57,207.65l19.5,7.97v5.92l-30.14-12.14,13.96-11.84-13.45-11.7,29.63-11.29v5.88l-18.51,7.08,10.81,9.48-11.8,10.64Z"/>
    <path class="st2" d="M564.6,220.76h-5.82v-44.41h5.82v44.41Z"/>
    <path class="st2" d="M604.66,220.76h-32.91v-44.41h32.91v5.88h-27.03v32.64h27.03v5.89Z"/>
    <path class="st2" d="M634.39,220.76h-5.95v-26.96l-7.18,11.32c-1.08,2.05-1.77,4.7-2.09,7.94-.32,2.24-.48,4.8-.48,7.7h-5.88v-44.41h5.88l.03,24.87c6.61-10.99,9.88-18.38,9.78-22.17v-1.3c0-.57-.02-1.04-.07-1.4h5.95v44.41h0Z"/>
    <path class="st2" d="M678.73,220.76h-5.82v-44.41h5.82v44.41Z"/>
    <path class="st2" d="M743.7,201.43h-10.5v19.33h-5.88v-19.33h-10.57v-5.82h10.57v-19.33h5.88v19.33h10.5v5.82Z"/>
    <path class="st2" d="M783.89,220.76h-32.91v-44.41h32.91v5.88h-27.03v32.64h27.03v5.89Z"/>
    <path class="st2" d="M801.99,200.23c2.9,0,5.33.99,7.29,2.98,1.96,1.98,2.94,4.42,2.94,7.32s-.98,5.34-2.94,7.32c-1.96,1.98-4.39,2.98-7.29,2.98s-5.26-.99-7.22-2.98c-1.96-1.98-2.94-4.42-2.94-7.32s.98-5.34,2.94-7.32c1.96-1.99,4.37-2.98,7.22-2.98ZM807.53,210.46c0-1.64-.54-3-1.61-4.07s-2.38-1.61-3.93-1.61-2.76.54-3.83,1.61-1.61,2.43-1.61,4.07.54,2.94,1.61,4.04c1.07,1.09,2.35,1.64,3.83,1.64s2.86-.55,3.93-1.64c1.08-1.1,1.61-2.45,1.61-4.04Z"/>
    <path class="st2" d="M861.62,198.83c-.05,6.07-2.23,11.23-6.55,15.48s-9.54,6.38-15.65,6.38-11.26-2.14-15.5-6.41-6.41-9.43-6.5-15.45c-.05-6.16,2.08-11.44,6.36-15.86,4.29-4.41,9.5-6.62,15.63-6.62s11.41,2.21,15.75,6.62c4.36,4.41,6.51,9.7,6.46,15.86ZM855.46,198.83c.05-4.58-1.51-8.5-4.67-11.73-3.16-3.24-6.95-4.84-11.38-4.79-4.45.05-8.19,1.69-11.22,4.93-3.03,3.24-4.55,7.08-4.55,11.53.05,4.33,1.58,8.08,4.62,11.24,3.03,3.16,6.75,4.76,11.15,4.81,4.38.05,8.14-1.52,11.27-4.7,3.15-3.2,4.74-6.96,4.78-11.29ZM833.74,198.76c-.09-1.6.4-3.01,1.47-4.24,1.07-1.23,2.5-1.82,4.28-1.78,1.62.05,2.97.66,4.05,1.85s1.57,2.6,1.45,4.24c-.09,1.44-.65,2.67-1.68,3.71-1.03,1.04-2.3,1.56-3.83,1.56-1.69.05-3.04-.46-4.07-1.52-1.02-1.07-1.58-2.34-1.67-3.82Z"/>
    <path class="st2" d="M913.11,198.83c-.05,6.07-2.23,11.23-6.55,15.48s-9.54,6.38-15.65,6.38-11.26-2.14-15.5-6.41-6.41-9.43-6.5-15.45c-.05-6.16,2.08-11.44,6.36-15.86,4.29-4.41,9.5-6.62,15.63-6.62s11.41,2.21,15.75,6.62c4.36,4.41,6.51,9.7,6.46,15.86ZM906.95,198.83c.05-4.58-1.51-8.5-4.67-11.73-3.16-3.24-6.95-4.84-11.38-4.79-4.45.05-8.19,1.69-11.22,4.93-3.03,3.24-4.55,7.08-4.55,11.53.05,4.33,1.58,8.08,4.62,11.24,3.03,3.16,6.75,4.76,11.15,4.81,4.38.05,8.14-1.52,11.27-4.7,3.15-3.2,4.74-6.96,4.78-11.29ZM885.23,198.76c-.09-1.6.4-3.01,1.47-4.24,1.07-1.23,2.5-1.82,4.28-1.78,1.62.05,2.97.66,4.05,1.85s1.57,2.6,1.45,4.24c-.09,1.44-.65,2.67-1.68,3.71-1.03,1.04-2.3,1.56-3.83,1.56-1.69.05-3.04-.46-4.07-1.52-1.02-1.07-1.58-2.34-1.67-3.82Z"/>
    <path class="st2" d="M930.18,200.23c2.9,0,5.33.99,7.29,2.98,1.96,1.98,2.94,4.42,2.94,7.32s-.98,5.34-2.94,7.32c-1.96,1.98-4.39,2.98-7.29,2.98s-5.26-.99-7.22-2.98c-1.96-1.98-2.94-4.42-2.94-7.32s.98-5.34,2.94-7.32c1.96-1.99,4.37-2.98,7.22-2.98ZM935.72,210.46c0-1.64-.54-3-1.61-4.07s-2.38-1.61-3.93-1.61-2.76.54-3.83,1.61-1.61,2.43-1.61,4.07.54,2.94,1.61,4.04c1.07,1.09,2.35,1.64,3.83,1.64s2.86-.55,3.93-1.64c1.08-1.1,1.61-2.45,1.61-4.04Z"/>
    <path class="st2" d="M951.19,220.76h-5.82v-44.41h5.82v44.41Z"/>
    <path class="st2" d="M968.57,207.65l19.5,7.97v5.92l-30.14-12.14,13.96-11.84-13.45-11.7,29.63-11.29v5.88l-18.51,7.08,10.81,9.48-11.8,10.64Z"/>
    <path class="st2" d="M999.6,220.76h-5.82v-44.41h5.82v44.41Z"/>
    <path class="st2" d="M1043.25,220.76h-5.82v-44.41h5.82v44.41Z"/>
    <path class="st2" d="M1091.38,207.65l19.5,7.97v5.92l-30.14-12.14,13.96-11.84-13.45-11.7,29.63-11.29v5.88l-18.51,7.08,10.81,9.48-11.8,10.64Z"/>
    <path class="st2" d="M1122.41,220.76h-5.82v-44.41h5.82v44.41Z"/>
    <path class="st2" d="M1129.56,176.28h5.88v19.06h22.78v-19.06h5.88v24.94h-14.3v19.53h-5.95v-19.53h-14.3v-24.94h.01Z"/>
    <path class="st2" d="M1204.18,220.76h-32.91v-44.41h32.91v5.88h-27.03v32.64h27.03v5.89Z"/>
    <path class="st2" d="M1222.55,207.65l19.5,7.97v5.92l-30.14-12.14,13.96-11.84-13.45-11.7,29.63-11.29v5.88l-18.51,7.08,10.81,9.48-11.8,10.64Z"/>
    <path class="st2" d="M1292.2,198.83c-.05,6.07-2.23,11.23-6.55,15.48-4.32,4.25-9.54,6.38-15.65,6.38s-11.26-2.14-15.5-6.41c-4.24-4.28-6.41-9.43-6.5-15.45-.05-6.16,2.07-11.44,6.36-15.86,4.29-4.41,9.5-6.62,15.63-6.62s11.41,2.21,15.75,6.62c4.36,4.41,6.51,9.7,6.46,15.86ZM1286.05,198.83c.05-4.58-1.51-8.5-4.67-11.73-3.16-3.24-6.95-4.84-11.37-4.79-4.45.05-8.19,1.69-11.22,4.93-3.03,3.24-4.55,7.08-4.55,11.53.05,4.33,1.59,8.08,4.62,11.24s6.75,4.76,11.15,4.81c4.38.05,8.14-1.52,11.27-4.7,3.13-3.2,4.72-6.96,4.77-11.29ZM1264.32,198.76c-.09-1.6.4-3.01,1.47-4.24,1.07-1.23,2.5-1.82,4.28-1.78,1.62.05,2.97.66,4.05,1.85,1.08,1.19,1.57,2.6,1.45,4.24-.09,1.44-.65,2.67-1.68,3.71-1.03,1.04-2.3,1.56-3.83,1.56-1.69.05-3.04-.46-4.07-1.52-1.02-1.07-1.58-2.34-1.67-3.82Z"/>
    <path class="st2" d="M1305.07,220.76h-5.82v-44.41h5.82v44.41Z"/>
  </g>
  <rect class="st2" x="680.29" y="354.46" width="6.33" height="24.92"/>
</svg>