<?xml version="1.0" encoding="UTF-8"?>
<svg id="Layer_1" xmlns="http://www.w3.org/2000/svg" version="1.1" viewBox="0 0 465.01 458.4">
  <!-- Generator: Adobe Illustrator 29.7.1, SVG Export Plug-In . SVG Version: 2.1.1 Build 8)  -->
  <defs>
    <style>
      .st0 {
        fill: #7fcef3;
      }

      .st1 {
        fill: #fff;
      }

      .st2 {
        fill: #0673a8;
      }
    </style>
  </defs>
  <rect class="st2" width="448.04" height="458.4"/>
  <path class="st1" d="M308.38,321.11c-29.69,33.22-72.8,54.07-120.87,54.07-43.19,0-82.41-16.89-111.53-44.39-1.7-1.63-3.32-3.25-5.02-4.95l-4.81,4.17c1.63,1.7,3.25,3.39,5.02,4.95,30.18,28.91,71.25,46.65,116.34,46.65,52.02,0,98.46-23.54,129.42-60.5h-8.55Z"/>
  <path class="st1" d="M24.6,214.25c0,42.2,15.97,82.13,44.95,112.74l-2.12,1.91c-29.47-31.03-45.66-71.6-45.66-114.64s17.1-85.88,48.13-117.33h4.1c-31.45,30.74-49.4,73.29-49.4,117.32Z"/>
  <path class="st1" d="M170.14,241.45h-57.93v53.73h64.56v16.14h-83.79v-149.02h80.48v16.14h-61.24v47.1h57.93v15.91h0Z"/>
  <path class="st1" d="M192.01,285.68c8.62,5.3,21.23,9.73,34.49,9.73,19.68,0,31.18-10.39,31.18-25.43,0-13.92-7.96-21.89-28.08-29.62-24.32-8.62-39.35-21.23-39.35-42.23,0-23.22,19.23-40.46,48.2-40.46,15.26,0,26.31,3.54,32.94,7.3l-5.3,15.7c-4.86-2.65-14.81-7.08-28.3-7.08-20.34,0-28.08,12.16-28.08,22.33,0,13.93,9.07,20.78,29.63,28.74,25.2,9.73,38.03,21.89,38.03,43.78,0,22.99-17.02,42.89-52.18,42.89-14.37,0-30.07-4.2-38.03-9.5l4.85-16.15Z"/>
  <path class="st1" d="M316.93,162.3v149.02h-19.23v-149.02h19.23Z"/>
  <polygon class="st0" points="357.74 109.24 357.74 239.25 422.74 174.25 357.74 109.24"/>
  <polygon class="st0" points="447.4 174.25 394.39 227.26 394.39 209.23 429.37 174.25 394.39 139.26 394.39 121.24 447.4 174.25"/>
  <polygon class="st0" points="465.01 174.25 426.07 213.19 426.07 202.56 454.38 174.25 426.07 145.01 426.07 135.3 465.01 174.25"/>
  <path class="st1" d="M324.31,123.47c-1.19-2.02-8.81-2.5-17.72-1.01-8.81,1.46-15.81,4.3-16.4,6.6-.03-.25-.04-.5-.03-.76,0-1.35.16-2.69.47-4,.02-.05.03-.11.05-.16,2.28-9.34,11.7-15.06,21.04-12.78,3.39.83,6.46,2.66,8.79,5.25.65.71,1.24,1.48,1.75,2.29.9,1.42,1.59,2.96,2.05,4.57Z"/>
  <path class="st1" d="M325,128.3c0,.21,0,.4-.02.61v.24c-.04.8-.13,1.59-.29,2.38-1.51,8.07-8.6,14.19-17.11,14.19-5.44,0-10.57-2.54-13.85-6.87-1.03-1.32-1.85-2.8-2.44-4.37-.14-.39-.29-.77-.4-1.17-.34-1.13-.56-2.29-.66-3.47v-.03c-.03-.25-.05-.5-.05-.75.59-2.3,7.59-5.14,16.4-6.6,8.91-1.49,16.53-1.01,17.72,1.01.06.21.13.42.18.63.3,1.18.46,2.38.5,3.6.02.2.02.39.02.6Z"/>
  <path class="st0" d="M322.25,118.91c-4.54-.11-10.09.3-16.03,1.3-5.92.98-11.32,2.38-15.55,3.93-6.13,2.23-9.89,4.8-9.53,6.92.34,2.01,4.27,3.18,10.16,3.42-.14-.39-.29-.77-.4-1.17-.34-1.13-.56-2.29-.66-3.47v-.03c-.04-.07-.07-.16-.08-.24-.03-.17-.02-.35.03-.51.59-2.3,7.59-5.14,16.4-6.6,8.91-1.49,16.53-1.01,17.72,1.01.08.12.13.26.16.4.01.07.02.15.02.22.3,1.18.46,2.38.5,3.6.02.21.02.4.02.61s0,.4-.02.61c5.52-2.15,8.84-4.53,8.51-6.53-.37-2.12-4.76-3.32-11.25-3.47Z"/>
</svg>