<?xml version="1.0" encoding="UTF-8"?>
<svg id="Layer_1" xmlns="http://www.w3.org/2000/svg" version="1.1" viewBox="0 0 435.8 188.34">
  <!-- Generator: Adobe Illustrator 29.7.1, SVG Export Plug-In . SVG Version: 2.1.1 Build 8)  -->
  <defs>
    <style>
      .st0 {
        fill: #6c56a4;
      }
    </style>
  </defs>
  <g>
    <path class="st0" d="M86.33,96.09h-43.1c.37,4.94,1.98,8.87,4.82,11.79,2.84,2.88,6.48,4.32,10.93,4.32,3.46,0,6.32-.82,8.58-2.47,2.22-1.65,4.75-4.69,7.59-9.14l11.73,6.54c-1.81,3.09-3.73,5.73-5.74,7.93-2.02,2.2-4.18,4.01-6.48,5.43-2.31,1.42-4.8,2.46-7.47,3.12-2.68.66-5.58.99-8.71.99-8.97,0-16.18-2.88-21.61-8.64-5.43-5.8-8.15-13.5-8.15-23.09s2.63-17.21,7.9-23.09c5.31-5.8,12.35-8.71,21.12-8.71s15.85,2.82,20.99,8.46c5.1,5.6,7.66,13.36,7.66,23.28l-.06,3.27ZM72.06,84.73c-1.94-7.41-6.61-11.11-14.02-11.11-1.69,0-3.27.26-4.75.77-1.48.52-2.83,1.26-4.04,2.22-1.21.97-2.25,2.13-3.12,3.49-.86,1.36-1.52,2.9-1.98,4.63h27.91Z"/>
    <path class="st0" d="M136.46,73l-11.48,6.11c-1.81-3.7-4.06-5.56-6.73-5.56-1.28,0-2.37.42-3.27,1.27-.91.84-1.36,1.92-1.36,3.24,0,2.31,2.67,4.59,8.03,6.85,7.37,3.17,12.33,6.09,14.88,8.77,2.55,2.68,3.83,6.28,3.83,10.81,0,5.8-2.14,10.66-6.42,14.57-4.16,3.7-9.18,5.56-15.07,5.56-10.09,0-17.23-4.92-21.43-14.76l11.85-5.5c1.65,2.88,2.9,4.71,3.77,5.5,1.69,1.56,3.7,2.35,6.05,2.35,4.69,0,7.04-2.14,7.04-6.42,0-2.47-1.81-4.77-5.43-6.92-1.4-.7-2.8-1.38-4.2-2.04-1.4-.66-2.82-1.34-4.26-2.04-4.03-1.98-6.88-3.95-8.52-5.93-2.1-2.51-3.15-5.74-3.15-9.69,0-5.23,1.79-9.55,5.37-12.97,3.66-3.42,8.11-5.12,13.34-5.12,7.7,0,13.42,3.97,17.17,11.92Z"/>
    <path class="st0" d="M150.73,37.74c0-2.43.88-4.53,2.65-6.3,1.77-1.77,3.89-2.65,6.36-2.65s4.65.89,6.42,2.65c1.77,1.73,2.65,3.85,2.65,6.36s-.89,4.65-2.65,6.42c-1.73,1.77-3.85,2.65-6.36,2.65s-4.65-.88-6.42-2.65c-1.77-1.77-2.65-3.93-2.65-6.48ZM166.72,62.75v60.14h-13.89v-60.14h13.89Z"/>
    <path class="st0" d="M201.35,64.85h41.12V27.56h14.39v95.33h-14.39v-44.52h-41.12v44.52h-14.39V27.56h14.39v37.29Z"/>
    <path class="st0" d="M290.95,62.75v34.52c0,9.96,3.93,14.94,11.79,14.94s11.79-4.98,11.79-14.94v-34.52h13.89v34.82c0,4.82-.6,8.97-1.79,12.47-1.15,3.13-3.15,5.95-5.99,8.46-4.69,4.08-10.66,6.11-17.9,6.11s-13.15-2.04-17.84-6.11c-2.88-2.51-4.92-5.33-6.11-8.46-1.15-2.8-1.73-6.96-1.73-12.47v-34.82h13.89Z"/>
    <path class="st0" d="M359.85,18.6v51.12c5.56-5.76,11.85-8.64,18.89-8.64,8.11,0,14.86,3.03,20.25,9.08,5.39,6.01,8.09,13.5,8.09,22.48s-2.72,16.92-8.15,22.97c-5.39,6.01-12.21,9.01-20.44,9.01-6.96,0-13.17-2.68-18.65-8.03v6.3h-13.89V18.6h13.89ZM392.88,93.25c0-5.76-1.57-10.45-4.69-14.08-3.17-3.7-7.14-5.56-11.92-5.56-5.1,0-9.26,1.79-12.47,5.37-3.17,3.54-4.75,8.15-4.75,13.83s1.56,10.52,4.69,14.02c3.13,3.58,7.24,5.37,12.35,5.37,4.82,0,8.81-1.79,11.98-5.37,3.21-3.62,4.82-8.15,4.82-13.58Z"/>
  </g>
  <g>
    <path class="st0" d="M72.8,155.59h-10.22c.09,1.17.47,2.1,1.14,2.8.67.68,1.54,1.03,2.59,1.03.82,0,1.5-.2,2.04-.59.53-.39,1.13-1.11,1.8-2.17l2.78,1.55c-.43.73-.88,1.36-1.36,1.88s-.99.95-1.54,1.29-1.14.58-1.77.74-1.32.23-2.07.23c-2.13,0-3.84-.68-5.13-2.05-1.29-1.38-1.93-3.2-1.93-5.48s.62-4.08,1.88-5.48c1.26-1.38,2.93-2.07,5.01-2.07s3.76.67,4.98,2.01c1.21,1.33,1.82,3.17,1.82,5.52v.78ZM69.42,152.89c-.46-1.76-1.57-2.64-3.33-2.64-.4,0-.78.06-1.13.18s-.67.3-.96.53-.53.51-.74.83-.36.69-.47,1.1h6.62Z"/>
    <path class="st0" d="M77.67,147.68l3.69,8.01,3.68-8.01h3.71l-7.41,15.25-7.35-15.25h3.69Z"/>
    <path class="st0" d="M103.45,155.59h-10.22c.09,1.17.47,2.1,1.14,2.8.67.68,1.54,1.03,2.59,1.03.82,0,1.5-.2,2.04-.59.53-.39,1.13-1.11,1.8-2.17l2.78,1.55c-.43.73-.88,1.36-1.36,1.88s-.99.95-1.54,1.29-1.14.58-1.77.74-1.32.23-2.07.23c-2.13,0-3.84-.68-5.13-2.05-1.29-1.38-1.93-3.2-1.93-5.48s.62-4.08,1.88-5.48c1.26-1.38,2.93-2.07,5.01-2.07s3.76.67,4.98,2.01c1.21,1.33,1.82,3.17,1.82,5.52v.78ZM100.06,152.89c-.46-1.76-1.57-2.64-3.33-2.64-.4,0-.78.06-1.13.18s-.67.3-.96.53-.53.51-.74.83-.36.69-.47,1.1h6.62Z"/>
    <path class="st0" d="M107.05,147.68h3.3v1.27c.61-.63,1.14-1.07,1.61-1.3.48-.24,1.04-.37,1.7-.37.87,0,1.78.28,2.72.85l-1.51,3.02c-.62-.45-1.24-.67-1.83-.67-1.8,0-2.7,1.36-2.7,4.07v7.4h-3.3v-14.27Z"/>
    <path class="st0" d="M124.09,159.29l-6.42-11.62h3.82l4.37,8.2,4.07-8.2h3.72l-11.37,22.03h-3.76l5.57-10.42Z"/>
    <path class="st0" d="M139.29,150.75v11.19h-3.3v-11.19h-1.41v-3.08h1.41v-5.23h3.3v5.23h2.56v3.08h-2.56Z"/>
    <path class="st0" d="M144.7,137.2h3.3v11.66c1.17-1.05,2.47-1.58,3.88-1.58,1.61,0,2.9.52,3.87,1.57.82.91,1.23,2.36,1.23,4.35v8.75h-3.3v-8.44c0-1.14-.2-1.97-.61-2.48s-1.06-.77-1.96-.77c-1.15,0-1.96.36-2.43,1.07-.46.72-.69,1.96-.69,3.72v6.9h-3.3v-24.74Z"/>
    <path class="st0" d="M160.65,141.74c0-.58.21-1.07.63-1.49s.92-.63,1.51-.63,1.1.21,1.52.63c.42.41.63.91.63,1.51s-.21,1.1-.63,1.52c-.41.42-.91.63-1.51.63s-1.1-.21-1.52-.63-.63-.93-.63-1.54ZM164.44,147.68v14.27h-3.3v-14.27h3.3Z"/>
    <path class="st0" d="M168.62,147.68h3.31v1.32c1.15-1.14,2.45-1.71,3.9-1.71,1.66,0,2.95.52,3.88,1.57.8.89,1.2,2.34,1.2,4.35v8.75h-3.31v-7.97c0-1.41-.2-2.38-.59-2.92-.38-.55-1.07-.82-2.08-.82-1.09,0-1.87.36-2.33,1.08-.45.71-.67,1.96-.67,3.74v6.88h-3.31v-14.27Z"/>
    <path class="st0" d="M198.87,161.61c0,.67-.02,1.27-.07,1.78s-.1.96-.18,1.35c-.23,1.07-.69,2-1.38,2.77-1.29,1.48-3.06,2.23-5.32,2.23-1.9,0-3.47-.51-4.7-1.54-1.27-1.05-2-2.51-2.2-4.38h3.31c.13.7.34,1.25.63,1.63.68.89,1.68,1.33,2.99,1.33,2.41,0,3.62-1.48,3.62-4.44v-1.99c-1.31,1.34-2.82,2.01-4.53,2.01-1.94,0-3.54-.7-4.78-2.11-1.25-1.43-1.88-3.21-1.88-5.35s.58-3.85,1.74-5.3c1.25-1.54,2.9-2.31,4.95-2.31,1.8,0,3.29.67,4.48,2.01v-1.61h3.3v13.93ZM195.7,154.84c0-1.39-.37-2.5-1.11-3.33-.75-.85-1.71-1.27-2.89-1.27-1.25,0-2.24.46-2.96,1.39-.65.83-.98,1.9-.98,3.22s.33,2.36.98,3.19c.71.91,1.7,1.36,2.96,1.36s2.26-.46,2.99-1.38c.67-.83,1.01-1.89,1.01-3.19Z"/>
    <path class="st0" d="M211.79,141.74c0-.58.21-1.07.63-1.49s.92-.63,1.51-.63,1.1.21,1.52.63c.42.41.63.91.63,1.51s-.21,1.1-.63,1.52c-.41.42-.91.63-1.51.63s-1.1-.21-1.52-.63-.63-.93-.63-1.54ZM215.58,147.68v14.27h-3.3v-14.27h3.3Z"/>
    <path class="st0" d="M219.75,147.68h3.31v1.32c1.15-1.14,2.45-1.71,3.9-1.71,1.66,0,2.95.52,3.88,1.57.8.89,1.2,2.34,1.2,4.35v8.75h-3.31v-7.97c0-1.41-.2-2.38-.59-2.92-.38-.55-1.07-.82-2.08-.82-1.09,0-1.87.36-2.33,1.08-.45.71-.67,1.96-.67,3.74v6.88h-3.31v-14.27Z"/>
    <path class="st0" d="M244.79,154.71c0-2.06.74-3.81,2.21-5.26s3.27-2.17,5.39-2.17,3.94.73,5.42,2.18c1.46,1.46,2.2,3.24,2.2,5.36s-.74,3.93-2.21,5.38c-1.48,1.44-3.31,2.15-5.46,2.15s-3.93-.73-5.38-2.2c-1.45-1.45-2.17-3.26-2.17-5.45ZM248.16,154.77c0,1.43.38,2.55,1.14,3.38.78.84,1.81,1.26,3.09,1.26s2.32-.42,3.09-1.25,1.16-1.94,1.16-3.33-.39-2.5-1.16-3.33c-.78-.84-1.81-1.26-3.09-1.26s-2.28.42-3.06,1.26-1.17,1.92-1.17,3.25Z"/>
    <path class="st0" d="M263.5,147.68h3.31v1.32c1.15-1.14,2.45-1.71,3.9-1.71,1.66,0,2.95.52,3.88,1.57.8.89,1.2,2.34,1.2,4.35v8.75h-3.31v-7.97c0-1.41-.2-2.38-.59-2.92-.38-.55-1.07-.82-2.08-.82-1.09,0-1.87.36-2.33,1.08-.45.71-.67,1.96-.67,3.74v6.88h-3.31v-14.27Z"/>
    <path class="st0" d="M292.94,155.59h-10.22c.09,1.17.47,2.1,1.14,2.8.67.68,1.54,1.03,2.59,1.03.82,0,1.5-.2,2.04-.59.53-.39,1.13-1.11,1.8-2.17l2.78,1.55c-.43.73-.88,1.36-1.36,1.88s-.99.95-1.54,1.29-1.14.58-1.77.74-1.32.23-2.07.23c-2.13,0-3.84-.68-5.13-2.05-1.29-1.38-1.93-3.2-1.93-5.48s.62-4.08,1.88-5.48c1.26-1.38,2.93-2.07,5.01-2.07s3.76.67,4.98,2.01c1.21,1.33,1.82,3.17,1.82,5.52v.78ZM289.55,152.89c-.46-1.76-1.57-2.64-3.33-2.64-.4,0-.78.06-1.13.18s-.67.3-.96.53-.53.51-.74.83-.36.69-.47,1.1h6.62Z"/>
    <path class="st0" d="M309.1,169.71h-3.3v-22.03h3.3v1.55c1.3-1.3,2.77-1.95,4.42-1.95,1.96,0,3.58.72,4.85,2.17,1.29,1.44,1.93,3.25,1.93,5.43s-.64,3.92-1.92,5.35c-1.27,1.42-2.87,2.12-4.8,2.12-1.67,0-3.16-.67-4.48-2.01v9.36ZM316.93,154.9c0-1.37-.37-2.48-1.11-3.34-.75-.87-1.7-1.3-2.84-1.3-1.21,0-2.19.42-2.94,1.26s-1.13,1.94-1.13,3.31.38,2.44,1.13,3.31c.74.85,1.72,1.27,2.93,1.27,1.14,0,2.08-.43,2.83-1.29.76-.86,1.14-1.93,1.14-3.22Z"/>
    <path class="st0" d="M327.08,137.2v24.74h-3.3v-24.74h3.3Z"/>
    <path class="st0" d="M341.78,147.68h3.31v14.27h-3.31v-1.49c-1.36,1.27-2.82,1.9-4.38,1.9-1.97,0-3.6-.71-4.89-2.14-1.28-1.46-1.92-3.27-1.92-5.45s.64-3.92,1.92-5.35,2.88-2.14,4.8-2.14c1.66,0,3.15.68,4.47,2.05v-1.66ZM333.95,154.77c0,1.37.37,2.48,1.1,3.34.75.87,1.7,1.3,2.84,1.3,1.22,0,2.21-.42,2.96-1.26.75-.87,1.13-1.97,1.13-3.31s-.38-2.44-1.13-3.31c-.75-.85-1.73-1.27-2.93-1.27-1.13,0-2.08.43-2.84,1.29-.75.87-1.13,1.94-1.13,3.22Z"/>
    <path class="st0" d="M360.35,148.29v4.38c-.75-.92-1.43-1.55-2.02-1.89-.59-.35-1.27-.53-2.07-.53-1.24,0-2.27.43-3.09,1.3s-1.23,1.96-1.23,3.27.4,2.44,1.19,3.3c.8.86,1.82,1.29,3.06,1.29.79,0,1.49-.17,2.09-.51.59-.33,1.27-.98,2.07-1.93v4.35c-1.34.69-2.68,1.04-4.01,1.04-2.21,0-4.05-.71-5.54-2.14-1.48-1.44-2.23-3.22-2.23-5.35s.75-3.93,2.26-5.39,3.35-2.2,5.54-2.2c1.41,0,2.73.34,3.98,1.01Z"/>
    <path class="st0" d="M376.54,155.59h-10.22c.09,1.17.47,2.1,1.14,2.8.67.68,1.54,1.03,2.59,1.03.82,0,1.5-.2,2.04-.59.53-.39,1.13-1.11,1.8-2.17l2.78,1.55c-.43.73-.88,1.36-1.36,1.88s-.99.95-1.54,1.29-1.14.58-1.77.74-1.32.23-2.07.23c-2.13,0-3.84-.68-5.13-2.05-1.29-1.38-1.93-3.2-1.93-5.48s.62-4.08,1.88-5.48c1.26-1.38,2.93-2.07,5.01-2.07s3.76.67,4.98,2.01c1.21,1.33,1.82,3.17,1.82,5.52v.78ZM373.15,152.89c-.46-1.76-1.57-2.64-3.33-2.64-.4,0-.78.06-1.13.18s-.67.3-.96.53c-.29.23-.54.51-.74.83s-.36.69-.47,1.1h6.62Z"/>
  </g>
</svg>