<?xml version="1.0" encoding="utf-8"?>
<!-- Generator: Adobe Illustrator 26.0.3, SVG Export Plug-In . SVG Version: 6.00 Build 0)  -->
<svg version="1.1" id="Layer_1" xmlns="http://www.w3.org/2000/svg" xmlns:xlink="http://www.w3.org/1999/xlink" x="0px" y="0px"
	 viewBox="0 0 1305.16 458.4" style="enable-background:new 0 0 1305.16 458.4;" xml:space="preserve">
<style type="text/css">
	.st0{fill:#0673A8;}
	.st1{fill:#FFFFFF;}
	.st2{fill:#7FCEF3;}
</style>
<g>
	<g>
		<rect class="st0" width="448.04" height="458.4"/>
		<path class="st1" d="M308.38,321.11c-29.69,33.22-72.8,54.07-120.87,54.07c-43.19,0-82.41-16.89-111.53-44.39
			c-1.7-1.63-3.32-3.25-5.02-4.95l-4.81,4.17c1.63,1.7,3.25,3.39,5.02,4.95c30.18,28.91,71.25,46.65,116.34,46.65
			c52.02,0,98.46-23.54,129.42-60.5L308.38,321.11z"/>
		<path class="st1" d="M24.6,214.25c0,42.2,15.97,82.13,44.95,112.74l-2.12,1.91c-29.47-31.03-45.66-71.6-45.66-114.64
			c0-44.25,17.1-85.88,48.13-117.33h4.1C42.55,127.67,24.6,170.22,24.6,214.25z"/>
		<path class="st1" d="M170.14,241.45h-57.93v53.73h64.56v16.14H92.98V162.3h80.48v16.14h-61.24v47.1h57.93V241.45z"/>
		<path class="st1" d="M192.01,285.68c8.62,5.3,21.23,9.73,34.49,9.73c19.68,0,31.18-10.39,31.18-25.43
			c0-13.92-7.96-21.89-28.08-29.62c-24.32-8.62-39.35-21.23-39.35-42.23c0-23.22,19.23-40.46,48.2-40.46
			c15.26,0,26.31,3.54,32.94,7.3l-5.3,15.7c-4.86-2.65-14.81-7.08-28.3-7.08c-20.34,0-28.08,12.16-28.08,22.33
			c0,13.93,9.07,20.78,29.63,28.74c25.2,9.73,38.03,21.89,38.03,43.78c0,22.99-17.02,42.89-52.18,42.89
			c-14.37,0-30.07-4.2-38.03-9.5L192.01,285.68z"/>
		<path class="st1" d="M316.93,162.3v149.02h-19.23V162.3H316.93z"/>
		<polygon class="st2" points="357.74,109.24 357.74,239.25 422.74,174.25 		"/>
		<polygon class="st2" points="447.4,174.25 394.39,227.26 394.39,209.23 429.37,174.25 394.39,139.26 394.39,121.24 		"/>
		<polygon class="st2" points="465.01,174.25 426.07,213.19 426.07,202.56 454.38,174.25 426.07,145.01 426.07,135.3 		"/>
		<path class="st1" d="M324.31,123.47c-1.19-2.02-8.81-2.5-17.72-1.01c-8.81,1.46-15.81,4.3-16.4,6.6c-0.03-0.25-0.04-0.5-0.03-0.76
			c0-1.35,0.16-2.69,0.47-4c0.02-0.05,0.03-0.11,0.05-0.16c2.28-9.34,11.7-15.06,21.04-12.78c3.39,0.83,6.46,2.66,8.79,5.25
			c0.65,0.71,1.24,1.48,1.75,2.29C323.16,120.32,323.85,121.86,324.31,123.47z"/>
		<path class="st1" d="M325,128.3c0,0.21,0,0.4-0.02,0.61v0.24c-0.04,0.8-0.13,1.59-0.29,2.38c-1.51,8.07-8.6,14.19-17.11,14.19
			c-5.44,0.01-10.57-2.54-13.85-6.87c-1.03-1.32-1.85-2.8-2.44-4.37c-0.14-0.39-0.29-0.77-0.4-1.17c-0.34-1.13-0.56-2.29-0.66-3.47
			v-0.03c-0.03-0.25-0.05-0.5-0.05-0.75c0.59-2.3,7.59-5.14,16.4-6.6c8.91-1.49,16.53-1.01,17.72,1.01
			c0.06,0.21,0.13,0.42,0.18,0.63c0.3,1.18,0.46,2.38,0.5,3.6C325,127.9,325,128.09,325,128.3z"/>
		<path class="st2" d="M322.25,118.91c-4.54-0.11-10.09,0.3-16.03,1.3c-5.92,0.98-11.32,2.38-15.55,3.93
			c-6.13,2.23-9.89,4.8-9.53,6.92c0.34,2.01,4.27,3.18,10.16,3.42c-0.14-0.39-0.29-0.77-0.4-1.17c-0.34-1.13-0.56-2.29-0.66-3.47
			v-0.03c-0.04-0.07-0.07-0.16-0.08-0.24c-0.03-0.17-0.02-0.35,0.03-0.51c0.59-2.3,7.59-5.14,16.4-6.6
			c8.91-1.49,16.53-1.01,17.72,1.01c0.08,0.12,0.13,0.26,0.16,0.4c0.01,0.07,0.02,0.15,0.02,0.22c0.3,1.18,0.46,2.38,0.5,3.6
			c0.02,0.21,0.02,0.4,0.02,0.61s0,0.4-0.02,0.61c5.52-2.15,8.84-4.53,8.51-6.53C333.13,120.26,328.74,119.06,322.25,118.91z"/>
	</g>
	<polygon class="st1" points="1090.71,58.2 1085.92,56.01 1087.31,50.38 1091.92,52.85 	"/>
	<path class="st1" d="M772.63,113.43c0.51-6.59,0.74-14.42,4.9-21.07c0.63-1.02,1.76-1.61,2.96-1.61c3.03,0,7.55,0.02,10.17,0.15
		c0,0-0.3,12.47-0.17,16.96c0.04,1.51,0.17,5.58,0.17,5.58s15.67-0.02,23.66-0.05c0.15-2.73,0.38-4.98,0.38-7.23
		c0-15.13,0.1-30.26-0.19-45.38c-0.08-4.17-1.19-8.37-2.18-12.47c-0.62-2.58-1.07-4.68,0.98-6.98c1.71-1.91,2.74-4.59,4.32-7.29
		c0.49-0.05,1.37,0.01,2.5-0.1v90.98c-1.63,2.96-4.57,2.55-7.23,2.55c-8.44-0.02-16.88-0.29-25.32-0.24
		c-13.26,0.08-26.52,0.44-39.78,0.48c-22.46,0.07-44.92,0.01-67.38-0.07c-5.25-0.02-15.08-0.37-20.34-0.46
		c0,0-1.32,18.93-5.75,24.92c-2.38,3.21-5.1,6.43-9.85,5.96c-0.51-0.05-0.99-0.33-1.52-0.51c2.77-3,5.33-6.69,7.02-9.3
		c1.41-2.18,2.41-4.59,2.96-7.12c0.97-4.48,2.18-11.53,0.88-14.29c-12.57-0.24-11.81-9.63-11.93-16.76
		c-0.29-7.94,3.1-22.67,10.81-21.66s6.22,15.59,7.35,23.85l22.57,0.06c-0.13-1.92-0.39-4.05-0.39-6.18
		c-0.04-17.65,0-35.29-0.12-52.94c-0.01-1.62-1.11-3.21-1.42-4.86c-0.29-1.55-0.73-3.4-0.17-4.72c1.38-3.23,3.71-4.08,5.37-9.98
		c0.37,0.04,1.54,0.18,3.27,0.37v79.67c12.18-0.31,23.74,0.22,35.63-0.47c-0.21-2.59-0.36-4.41-0.53-6.52
		c-3.88-1.63-5.42-4.98-4.55-8.77c1.15-5.04,2.06-10.5,6.98-13.65c4.16-2.66,10.28-0.52,12.49,3.93c3.92,7.88,2.95,17.04,1.87,25.21
		C741.08,113.43,772.58,113.47,772.63,113.43z M733.47,107.97c1.97-2.52,1.84-5.38,1.46-8.29c-0.25-1.94-0.23-4.15-2.91-4.39
		c-2.71-0.25-3.89,1.43-4.4,3.84C728.98,102.35,729.3,106.2,733.47,107.97z M654.21,112.78c0.09-2.45,0.42-5.02,0.15-7.51
		c-0.09-0.84-1.17-2.09-2.67-2.09c-0.92,0-2.31,1.21-2.63,2.17c-0.42,2.17-0.25,4.84-0.25,4.84
		C649.22,112.95,650.64,113.37,654.21,112.78z M784.35,103.51c-3.61-0.9-5-0.44-5.18,2.83c-0.07,1.3-0.19,2.63-0.06,3.92
		c0.31,3.06,1.63,3.17,5.12,2.28C784.23,109.68,784.35,106.43,784.35,103.51z"/>
	<path class="st1" d="M1043.44,113.46c-1.89-0.14-4.01-0.56-5.54-1.58c-7.92-5.23-7.86-17.39-1.46-24.64
		c3.03-3.42,7.79-5.32,12.36-8.29v-3.34c-2.31,0.25-4.51,0.7-6.57,1.3c-3.23,0.93-6.18,2.57-8.69,4.81
		c-5.73,5.12-7.99,10.36-8.44,16.88c-0.54,6.14,2.36,12.85,3.91,14.54h-50.18V34.48l-2.01,0.03c-1.28,3.18-3.74,6.32-5.02,8.04
		c-0.54,0.71-0.74,1.62-0.57,2.5c1.17,5.76,2.68,10.72,2.83,15.73c0.4,13.14,0.07,26.3,0.05,39.45c-0.01,4.11-0.01,13.1-0.01,13.1
		l-36.15,0.08v-0.04l-14.02-0.17l-0.19-1.96c-1.02-8.32,0.27-22.38-7.29-23.37c-7.71-1.01-11.1,13.73-10.81,21.67
		c0.11,7.13-0.65,16.52,11.93,16.76c1.3,2.76,0.09,9.81-0.88,14.29c-0.56,2.54-1.56,4.94-2.97,7.12c-1.69,2.62-4.25,6.31-7.02,9.31
		c0.53,0.18,1.01,0.46,1.52,0.51c4.75,0.47,7.48-2.75,9.85-5.96c4.43-5.99,5.75-24.92,5.75-24.92c3.34,0.06,8.53,0.22,13.21,0.34
		V127c12.98,0.18,29.31,0.49,41.52,0.51c22.89,0.02,45.79-0.13,68.68-0.36c1.23-0.02,2.93-1.21,3.58-2.34
		c1.91-3.33,5.53-11.35,5.53-11.35S1046.6,113.68,1043.44,113.46z M917.94,112.25c-3.58,0.59-5,0.17-5.4-2.6
		c0,0-0.17-2.67,0.25-4.84c0.31-0.96,1.71-2.17,2.63-2.17c1.49,0,2.57,1.25,2.66,2.09C918.36,107.23,918.03,109.79,917.94,112.25z"
		/>
	<path class="st1" d="M1200.66,108.55c0.03-0.4,0.58-0.47,0.72-0.09c2.31,5.96,7.74,5.13,12.79,5.13c13.48,0,26.97-0.02,40.45-0.01
		c2.41,0,4.81,0.1,4.97-3.25c0.11-2.39-2.37-4.77-5.28-4.78c-12.94-0.04-25.87,0.01-38.81,0.03c-2.4,0-4.8,0-6.83,0
		c-7.11-9.3-9.16-14.08-2.84-23.03c1.03,1.92,2.04,3.67,2.93,5.48c1.89,3.86,5.02,5.62,9.24,5.59c12.72-0.07,25.43-0.13,38.15-0.23
		c5.03-0.04,7.36,1.81,7.93,6.75c0.47,4.1,1.06,12.87,1.06,12.87s14.52,0.21,22.24,0.49c0.36-6.75,0.57-13.06,3.66-18.92
		c1.08-2.06,3.26-3.31,5.58-3.31h8.53l-0.61,35.97h-114.27C1190.85,122.01,1199.5,123.53,1200.66,108.55z M1299.27,112.97
		c0.2-2.67,0.5-10.13,0.5-10.13s-4.94-0.64-5.59,3.15c-0.31,2.61-0.01,4.04-0.01,6.97C1296.27,112.97,1297.57,112.97,1299.27,112.97
		z"/>
	<path class="st1" d="M1089.08,90.54c0.23-3.61,2.16-7.16-0.97-10.55c-0.59-0.64-0.89-2.25-0.5-2.99c2.61-4.96,5.44-9.81,8.56-15.34
		c0.25,1.7,0.66,3.15,0.66,4.6c-0.03,14.02,0.01,45.05,0.13,46.79c6.47,0,19.47,0,19.47,0s0.41-5.46-0.36-8.49
		c-0.3-1.19-2.71-3.65-3.01-4.8c2.45-5.22,4.95-10.55,7.46-15.88c0.26-0.04,0.52-0.08,0.78-0.12c0.15,1.46,0.44,2.93,0.44,4.39
		c0.02,7.78-0.03,15.55-0.03,23.33c0,0.41,0.22,0.83,0.54,1.96c1.91-0.09,6.79-0.31,6.79-0.31s0.19-7.49-0.46-11.33
		c-0.31-1.84-2.13-4-2.46-5.95c2.02-3.97,4.49-8.83,6.96-13.69c0.26,0.02,0.53,0.04,0.79,0.06c0,10.13,0,20.27,0,30.95
		c2.02,0,3.74,0.49,4.73-0.15c0.89-0.58,1.32-2.37,1.38-3.65c0.13-2.72,0.05-5.47-0.27-8.17c-0.23-1.87-1.05-3.65-1.54-5.5
		c-0.29-1.11-0.95-2.5-0.55-3.34c2.43-5.06,5.12-10,8.2-15.88c0.36,2.09,0.76,3.37,0.76,4.65c0.05,13.59,0.05,27.17-0.01,40.76
		c-0.01,1.68-0.49,3.35-0.81,5.41c-21.84,0-43.26,0-65.12,0c-0.42-1.67-1.01-2.97-1.02-4.27c-0.05-7.34-0.03-14.68,0.11-22.01
		C1079.83,95.83,1083.51,91.59,1089.08,90.54z M1088.41,113.46v-10.83c0,0-4.28,0.39-3.89,6.46
		C1084.76,113.46,1088.41,113.46,1088.41,113.46z"/>
	<path class="st1" d="M565.66,33.77h3.11v79.66c1.3,0.36,40.7,0,40.45,0c0-3.43,0.07-7.29-0.02-10.42
		c-0.05-1.92,0.55-4.31,1.56-6.48c1.61-3.45,4.98-5.65,8.78-5.81c2.1-0.09,4.29,0.16,6.65,1.15c0,2.9,0.01,5.83,0,8.75
		c-0.04,7.34-0.13,14.67-0.13,22.01c0,2.83-0.87,4.67-4.08,4.68c-17.74,0.03-35.47,0.21-53.21,0.05c-5.93-0.05-6.14-0.9-6.16-6.67
		c-0.08-21.24-0.3-42.48-0.48-63.72c-0.03-3.46,0.41-6.94-1.73-10.18c-0.58-0.88,0.15-2.92,0.73-4.23
		C562.4,39.74,564.3,39.53,565.66,33.77z M619.33,102.44c0.07,0.17-4.08-0.45-4.51,1.74c-0.21,2.24-0.55,6.35,0.02,9.01
		c0.12,0.58,4.53,0.33,4.53,0.22C619.38,109.57,619.33,106.64,619.33,102.44z"/>
	<path class="st1" d="M875.09,165.09c-1.03-2.37-1.95-4.8-3.13-7.1c-0.78-1.52-1.79-2.97-2.94-4.23c-1.3-1.42-1.6-2.74-0.63-4.43
		c0.48-0.84,0.98-1.79,1.06-2.72c0.49-5.63,1.08-11.27,1.22-16.92c0.18-7,0.2-14.46,0.13-20.99c0.08-6.09,0.37-12.88,5.13-17.88
		c1.07-1.12,2.8-2.04,4.32-2.21c3.25-0.35,6.65-0.64,9.8-0.01c2.34,0.47,5.01,1.98,6.37,3.87c1.57,2.18,2.46,5.25,2.58,7.98
		c0.34,7.76,0.15,15.54,0.13,23.31c0,0.83-0.32,1.67-0.53,2.67c-4.07,0.97-8.17,1.06-11.64-0.66c-3.34-1.65-4.65-5.39-4.92-9.1
		c-0.23-3.14-0.02-12.13-0.48-13.29c-3.57-0.12-5.07,1.92-5.07,4.11c-0.02,6.9,0.05,13.8,0.07,20.69
		c0.03,11.28,0.05,22.56,0.05,33.83c0,0.99-0.25,1.99-0.38,2.98C875.84,165.04,875.47,165.06,875.09,165.09z M887.41,111.06
		c0.9,1.92,4.4,1.59,5.41,1.12c0,0-0.24-5.77-0.28-7.12c-0.35-2.47-4.91-2.17-5.64-1.92C886.9,103.15,886.63,109.4,887.41,111.06z"
		/>
	<path class="st1" d="M537.13,113.56c0,0,0-10.97,0-15.96c0-0.1-0.03-0.24-0.1-0.31c-4.06-3.64-1.29-6.16,1.09-9.25
		c3.05-2.88,5.04-9,5.98-10.36c0.37,2.1,0.46,47.7,0.15,49.35c-18.08,0-36.78,0-55.16,0c2.61-5.88,10.01-6.61,9.62-20.14
		c1.2,1.33,2.06,3.25,3.81,4.79c1.06,0.93,2.19,1.86,3.53,1.88C514.92,113.72,537.13,113.56,537.13,113.56z"/>
	<path class="st1" d="M833.83,33.93c0.6,0,1.03,0,2.41,0c0,4.35,0,8.47,0,12.59c0,22.25-0.02,44.49,0.01,66.74
		c0,3.5-0.21,7.09,0.46,10.49c0.59,3,2.26,5.79,3.53,8.85c2.28,0.5,4.53,1,7.29,1.6c-2.3,4.2-6.09,5.44-9.34,6.65
		c-6.25-5.23-8.38-12.25-8.52-19.45c-0.38-21.03-0.03-42.08-0.16-63.12c-0.02-3.4-1.23-6.77-1.54-10.18
		c-0.18-1.96-0.06-4.14,0.66-5.93C829.72,39.48,831.89,38.55,833.83,33.93z"/>
	<path class="st1" d="M1173.84,80.02c0.15,1.45,0.42,2.89,0.42,4.34c0.01,13.91,0.12,20.63-0.05,34.54
		c-0.02,1.86-0.45,8.24-0.82,13.42c-0.21,2.91-0.71,5.79-1.54,8.59c-1.31,4.39-3.62,10.82-7.22,14.14c-2.1,1.93-4.41,3.5-6.99,2.33
		c1.56-2.48,3.06-4.62,4.43-7.09c0.35-0.64,0.66-1.3,0.94-1.98c1.72-4.13,3.61-8.42,3.89-12.73c0.66-10.26,0.33-20.58,0.16-30.88
		c-0.03-2.07-1.23-4.1-1.66-6.2c-0.29-1.4-0.69-3.14-0.14-4.3c2.13-4.48,4.62-8.79,6.98-13.16c0.2-0.36,0.46-0.69,0.69-1.03
		C1173.22,80.02,1173.53,80.02,1173.84,80.02z"/>
	<polygon class="st1" points="1085.38,63.53 1080.59,61.34 1081.98,55.71 1086.59,58.18 	"/>
	<g>
		<polygon class="st1" points="526.37,87.98 521.58,85.8 522.97,80.17 527.58,82.63 		"/>
		<polygon class="st1" points="521.04,93.32 516.25,91.13 517.64,85.5 522.25,87.96 		"/>
	</g>
	<g>
		<path class="st1" d="M521.13,318.6H489.1v-61.69h32.03v8.22h-23.09v18.43h23.09v8.05h-23.09v18.47h23.09V318.6z"/>
		<path class="st1" d="M588.2,303.13c-2.68,5.39-6.39,9.53-11.12,12.39c-4.73,2.87-10.22,4.3-16.46,4.3c-4.63,0-8.9-0.89-12.82-2.67
			c-3.91-1.78-7.42-4.42-10.53-7.92c-2.63-2.91-4.62-6.22-5.97-9.94c-1.36-3.71-2.03-7.69-2.03-11.93c0-4.29,0.82-8.37,2.46-12.22
			c1.64-3.86,4.04-7.36,7.2-10.53c2.99-2.94,6.32-5.16,9.98-6.67c3.66-1.51,7.59-2.27,11.8-2.27c6.33,0,11.88,1.5,16.67,4.49
			c4.79,2.99,8.4,7.23,10.83,12.71h-10.51c-1.98-2.74-4.41-4.8-7.29-6.19c-2.88-1.38-6.14-2.08-9.79-2.08
			c-2.91,0-5.68,0.55-8.3,1.65c-2.63,1.1-4.96,2.7-6.99,4.79c-2.12,2.18-3.77,4.7-4.96,7.58c-1.19,2.88-1.78,5.82-1.78,8.81
			c0,3.22,0.54,6.26,1.61,9.13c1.07,2.87,2.61,5.35,4.62,7.44c2.12,2.2,4.56,3.91,7.33,5.13c2.77,1.21,5.59,1.82,8.47,1.82
			c3.53,0,6.72-0.67,9.55-2.01c2.84-1.34,5.17-3.28,7.01-5.83H588.2z"/>
		<path class="st1" d="M594.51,287.37c0-4.32,0.82-8.42,2.46-12.29s4.04-7.36,7.2-10.47c2.99-2.94,6.32-5.16,9.98-6.67
			c3.66-1.51,7.59-2.27,11.8-2.27c4.32,0,8.33,0.76,12.01,2.27c3.69,1.51,7.05,3.76,10.1,6.76c3.14,3.08,5.49,6.52,7.08,10.34
			c1.58,3.81,2.37,7.92,2.37,12.33c0,4.38-0.68,8.41-2.03,12.1c-1.36,3.69-3.39,7-6.1,9.94c-3.19,3.45-6.76,6.04-10.7,7.8
			c-3.94,1.75-8.21,2.63-12.82,2.63c-4.63,0-8.9-0.89-12.82-2.67c-3.91-1.78-7.42-4.42-10.53-7.92c-2.63-2.91-4.62-6.22-5.97-9.94
			C595.19,295.58,594.51,291.61,594.51,287.37z M603.83,287.45c0,3.22,0.54,6.26,1.61,9.13c1.07,2.87,2.61,5.35,4.62,7.44
			c2.12,2.2,4.56,3.91,7.33,5.13c2.77,1.21,5.59,1.82,8.47,1.82c6.38,0,11.72-2.27,16.01-6.8c4.29-4.53,6.44-10.16,6.44-16.88
			c0-2.85-0.52-5.57-1.55-8.16c-1.03-2.58-2.54-4.96-4.51-7.14c-2.34-2.51-4.85-4.37-7.52-5.57c-2.67-1.2-5.63-1.8-8.88-1.8
			c-2.91,0-5.68,0.55-8.3,1.65c-2.63,1.1-4.96,2.7-6.99,4.79c-2.12,2.18-3.77,4.7-4.96,7.58
			C604.42,281.52,603.83,284.46,603.83,287.45z"/>
		<path class="st1" d="M694.75,318.6H665.6v-61.69h8.94v53.17h20.21V318.6z"/>
		<path class="st1" d="M733.98,318.6h-32.03v-61.69h32.03v8.22h-23.09v18.43h23.09v8.05h-23.09v18.47h23.09V318.6z"/>
		<path class="st1" d="M786.65,318.6h-17.33v-61.69h19.87c9.26,0,16.74,2.87,22.43,8.6c5.69,5.73,8.54,13.22,8.54,22.46
			c0,5.25-1.07,10.04-3.2,14.36c-2.13,4.32-5.2,7.92-9.22,10.8c-2.71,1.95-5.61,3.35-8.69,4.19
			C795.98,318.17,791.85,318.6,786.65,318.6z M778.01,310.33h10.85c6.86,0,12.29-2,16.29-6c4-4,6-9.43,6-16.29
			c0-7.12-2.12-12.68-6.36-16.69c-4.24-4.01-10.1-6.02-17.58-6.02h-9.19V310.33z"/>
		<path class="st1" d="M860.41,318.6h-32.03v-61.69h32.03v8.22h-23.09v18.43h23.09v8.05h-23.09v18.47h23.09V318.6z"/>
		<path class="st1" d="M868.08,300.8h8.01c0.14,3.19,1.09,5.74,2.84,7.65c1.75,1.91,4.02,2.86,6.82,2.86c3.08,0,5.54-0.95,7.39-2.86
			c1.85-1.91,2.77-4.45,2.77-7.65c0-2.8-0.68-4.96-2.03-6.48c-1.36-1.53-4.19-2.95-8.52-4.28c-0.23-0.06-0.61-0.16-1.14-0.3
			c-5.17-1.38-8.91-3.66-11.23-6.82c-1.04-1.38-1.83-2.86-2.35-4.43c-0.52-1.57-0.78-3.24-0.78-5.02c0-5.28,1.57-9.55,4.7-12.82
			c3.14-3.26,7.24-4.89,12.33-4.89c4.72,0,8.52,1.46,11.42,4.38c2.89,2.92,4.5,6.93,4.81,12.01h-8.35
			c-0.14-2.46-0.97-4.44-2.48-5.95c-1.51-1.51-3.41-2.27-5.7-2.27c-2.46,0-4.46,0.84-6,2.52c-1.54,1.68-2.31,3.85-2.31,6.5
			c0,0.93,0.14,1.81,0.42,2.63c0.28,0.82,0.72,1.58,1.31,2.29c1.21,1.44,3.81,2.68,7.8,3.73c1.84,0.48,3.25,0.89,4.24,1.23
			c4.07,1.53,7.15,3.74,9.26,6.65c2.1,2.91,3.16,6.4,3.16,10.46c0,5.96-1.69,10.76-5.08,14.41c-3.39,3.64-7.88,5.46-13.47,5.46
			c-5.25,0-9.53-1.74-12.82-5.23C869.81,311.1,868.14,306.51,868.08,300.8z"/>
		<path class="st1" d="M934.13,300.8h8.01c0.14,3.19,1.09,5.74,2.84,7.65c1.75,1.91,4.03,2.86,6.82,2.86c3.08,0,5.54-0.95,7.39-2.86
			c1.85-1.91,2.78-4.45,2.78-7.65c0-2.8-0.68-4.96-2.03-6.48c-1.36-1.53-4.19-2.95-8.52-4.28c-0.23-0.06-0.61-0.16-1.14-0.3
			c-5.17-1.38-8.91-3.66-11.23-6.82c-1.04-1.38-1.83-2.86-2.35-4.43c-0.52-1.57-0.78-3.24-0.78-5.02c0-5.28,1.57-9.55,4.7-12.82
			c3.14-3.26,7.25-4.89,12.33-4.89c4.72,0,8.52,1.46,11.42,4.38c2.89,2.92,4.5,6.93,4.81,12.01h-8.35
			c-0.14-2.46-0.97-4.44-2.48-5.95c-1.51-1.51-3.41-2.27-5.7-2.27c-2.46,0-4.46,0.84-6,2.52c-1.54,1.68-2.31,3.85-2.31,6.5
			c0,0.93,0.14,1.81,0.42,2.63c0.28,0.82,0.72,1.58,1.31,2.29c1.21,1.44,3.81,2.68,7.8,3.73c1.84,0.48,3.25,0.89,4.24,1.23
			c4.07,1.53,7.15,3.74,9.26,6.65s3.16,6.4,3.16,10.46c0,5.96-1.69,10.76-5.08,14.41c-3.39,3.64-7.88,5.46-13.47,5.46
			c-5.25,0-9.53-1.74-12.82-5.23C935.86,311.1,934.19,306.51,934.13,300.8z"/>
		<path class="st1" d="M1034.76,303.13c-2.69,5.39-6.39,9.53-11.12,12.39c-4.73,2.87-10.22,4.3-16.46,4.3
			c-4.63,0-8.9-0.89-12.82-2.67c-3.91-1.78-7.42-4.42-10.53-7.92c-2.63-2.91-4.62-6.22-5.97-9.94c-1.36-3.71-2.03-7.69-2.03-11.93
			c0-4.29,0.82-8.37,2.46-12.22c1.64-3.86,4.04-7.36,7.2-10.53c2.99-2.94,6.32-5.16,9.98-6.67c3.66-1.51,7.59-2.27,11.8-2.27
			c6.33,0,11.88,1.5,16.67,4.49c4.79,2.99,8.4,7.23,10.83,12.71h-10.51c-1.98-2.74-4.41-4.8-7.29-6.19
			c-2.88-1.38-6.14-2.08-9.79-2.08c-2.91,0-5.68,0.55-8.3,1.65c-2.63,1.1-4.96,2.7-6.99,4.79c-2.12,2.18-3.77,4.7-4.96,7.58
			c-1.18,2.88-1.78,5.82-1.78,8.81c0,3.22,0.54,6.26,1.61,9.13c1.07,2.87,2.61,5.35,4.62,7.44c2.12,2.2,4.56,3.91,7.33,5.13
			c2.77,1.21,5.59,1.82,8.47,1.82c3.53,0,6.72-0.67,9.55-2.01c2.84-1.34,5.18-3.28,7.01-5.83H1034.76z"/>
		<path class="st1" d="M1051.28,318.6h-8.94v-61.69h8.94V318.6z"/>
		<path class="st1" d="M1094.07,318.6h-32.03v-61.69h32.03v8.22h-23.09v18.43h23.09v8.05h-23.09v18.47h23.09V318.6z"/>
		<path class="st1" d="M1113.94,318.6h-8.94v-61.69h9.19l30.29,46.69l-0.42-46.69h8.81v61.69h-8.56l-30.97-48.09L1113.94,318.6z"/>
		<path class="st1" d="M1221.39,303.13c-2.69,5.39-6.39,9.53-11.12,12.39c-4.73,2.87-10.22,4.3-16.46,4.3
			c-4.63,0-8.9-0.89-12.82-2.67c-3.91-1.78-7.42-4.42-10.53-7.92c-2.63-2.91-4.62-6.22-5.97-9.94c-1.36-3.71-2.03-7.69-2.03-11.93
			c0-4.29,0.82-8.37,2.46-12.22c1.64-3.86,4.04-7.36,7.2-10.53c2.99-2.94,6.32-5.16,9.98-6.67c3.66-1.51,7.59-2.27,11.8-2.27
			c6.33,0,11.88,1.5,16.67,4.49c4.79,2.99,8.4,7.23,10.83,12.71h-10.51c-1.98-2.74-4.41-4.8-7.29-6.19
			c-2.88-1.38-6.14-2.08-9.79-2.08c-2.91,0-5.68,0.55-8.3,1.65c-2.63,1.1-4.96,2.7-6.99,4.79c-2.12,2.18-3.77,4.7-4.96,7.58
			c-1.18,2.88-1.78,5.82-1.78,8.81c0,3.22,0.54,6.26,1.61,9.13c1.07,2.87,2.61,5.35,4.62,7.44c2.12,2.2,4.56,3.91,7.33,5.13
			c2.77,1.21,5.59,1.82,8.47,1.82c3.53,0,6.72-0.67,9.55-2.01c2.84-1.34,5.18-3.28,7.01-5.83H1221.39z"/>
		<path class="st1" d="M1261.01,318.6h-32.03v-61.69h32.03v8.22h-23.09v18.43h23.09v8.05h-23.09v18.47h23.09V318.6z"/>
		<path class="st1" d="M1268.67,300.8h8.01c0.14,3.19,1.09,5.74,2.84,7.65c1.75,1.91,4.03,2.86,6.82,2.86
			c3.08,0,5.54-0.95,7.39-2.86c1.85-1.91,2.78-4.45,2.78-7.65c0-2.8-0.68-4.96-2.03-6.48c-1.36-1.53-4.19-2.95-8.52-4.28
			c-0.23-0.06-0.61-0.16-1.14-0.3c-5.17-1.38-8.91-3.66-11.23-6.82c-1.04-1.38-1.83-2.86-2.35-4.43c-0.52-1.57-0.78-3.24-0.78-5.02
			c0-5.28,1.57-9.55,4.7-12.82c3.14-3.26,7.25-4.89,12.33-4.89c4.72,0,8.52,1.46,11.42,4.38c2.89,2.92,4.5,6.93,4.81,12.01h-8.35
			c-0.14-2.46-0.97-4.44-2.48-5.95c-1.51-1.51-3.41-2.27-5.7-2.27c-2.46,0-4.46,0.84-6,2.52c-1.54,1.68-2.31,3.85-2.31,6.5
			c0,0.93,0.14,1.81,0.42,2.63c0.28,0.82,0.72,1.58,1.31,2.29c1.21,1.44,3.81,2.68,7.8,3.73c1.84,0.48,3.25,0.89,4.24,1.23
			c4.07,1.53,7.15,3.74,9.26,6.65c2.1,2.91,3.16,6.4,3.16,10.46c0,5.96-1.69,10.76-5.08,14.41c-3.39,3.64-7.88,5.46-13.47,5.46
			c-5.25,0-9.53-1.74-12.82-5.23C1270.4,311.1,1268.73,306.51,1268.67,300.8z"/>
		<path class="st1" d="M508.46,423.39H489.1v-68.94h22.21c10.35,0,18.71,3.2,25.07,9.61c6.36,6.41,9.54,14.77,9.54,25.09
			c0,5.87-1.19,11.22-3.57,16.05c-2.38,4.83-5.82,8.85-10.3,12.07c-3.03,2.18-6.27,3.74-9.71,4.69
			C518.89,422.92,514.27,423.39,508.46,423.39z M498.8,414.16h12.12c7.67,0,13.74-2.23,18.2-6.7c4.47-4.47,6.7-10.53,6.7-18.2
			c0-7.95-2.37-14.17-7.1-18.65c-4.73-4.48-11.28-6.72-19.65-6.72H498.8V414.16z"/>
		<path class="st1" d="M591.37,423.39h-35.79v-68.94h35.79v9.19h-25.8v20.6h25.8v9h-25.8v20.64h25.8V423.39z"/>
		<path class="st1" d="M666.2,423.39h-32.57v-68.94h9.99v59.42h22.58V423.39z"/>
		<path class="st1" d="M712.95,423.39h-9.99v-68.94h9.99V423.39z"/>
		<path class="st1" d="M735.45,423.39h-9.99v-68.94h10.27l33.85,52.18l-0.47-52.18h9.85v68.94h-9.56l-34.61-53.74L735.45,423.39z"/>
		<path class="st1" d="M791.28,423.39v-68.94h33.95v9.19h-24.05v20.6h24.05v9h-24.05v30.16H791.28z"/>
		<path class="st1" d="M835.09,388.5c0-4.83,0.91-9.41,2.75-13.73c1.83-4.32,4.51-8.22,8.05-11.69c3.35-3.28,7.06-5.77,11.15-7.46
			c4.09-1.69,8.48-2.53,13.19-2.53c4.83,0,9.3,0.85,13.42,2.53c4.12,1.69,7.88,4.21,11.29,7.55c3.5,3.44,6.14,7.29,7.91,11.55
			c1.77,4.26,2.65,8.85,2.65,13.78c0,4.89-0.76,9.4-2.27,13.52c-1.52,4.12-3.79,7.82-6.82,11.1c-3.57,3.85-7.55,6.76-11.95,8.71
			c-4.4,1.96-9.18,2.94-14.32,2.94c-5.18,0-9.95-0.99-14.32-2.98c-4.37-1.99-8.29-4.94-11.77-8.85c-2.94-3.25-5.16-6.95-6.68-11.1
			C835.85,397.67,835.09,393.23,835.09,388.5z M845.51,388.59c0,3.6,0.6,7,1.8,10.2c1.2,3.2,2.92,5.97,5.16,8.31
			c2.37,2.46,5.1,4.37,8.19,5.73c3.09,1.36,6.25,2.04,9.47,2.04c7.13,0,13.1-2.53,17.9-7.6c4.8-5.07,7.2-11.36,7.2-18.87
			c0-3.19-0.58-6.23-1.73-9.11c-1.15-2.89-2.83-5.55-5.04-7.98c-2.62-2.81-5.42-4.88-8.4-6.23c-2.98-1.34-6.29-2.01-9.92-2.01
			c-3.25,0-6.34,0.62-9.28,1.85c-2.93,1.23-5.54,3.01-7.81,5.35c-2.37,2.43-4.21,5.26-5.54,8.48
			C846.17,381.96,845.51,385.25,845.51,388.59z"/>
		<path class="st1" d="M925.01,423.39h-9.99v-68.94h19.89c8.27,0,14.58,1.91,18.94,5.73c4.36,3.82,6.53,9.34,6.53,16.57
			c0,5.62-1.82,10.31-5.47,14.09c-3.64,3.77-8.34,5.8-14.08,6.08l19.55,26.47h-12.5l-22.87-32.01V423.39z M925.01,390.25h5.11
			c6.91,0,12.06-1.12,15.43-3.36c3.38-2.24,5.07-5.65,5.07-10.23c0-4.45-1.45-7.72-4.36-9.8c-2.9-2.08-7.5-3.12-13.78-3.12h-7.48
			V390.25z"/>
		<path class="st1" d="M979.9,423.39h-9.61v-68.94h14.82l19.98,53.31l19.98-53.31h14.63v68.94h-9.37l0.66-59.85l-22.39,59.85h-7.1
			l-22.3-59.85L979.9,423.39z"/>
		<path class="st1" d="M1061.72,403.32l-7.77,20.07h-10.56l26.94-68.94h9.71l26.94,68.94h-10.94l-7.57-20.07H1061.72z
			 M1084.87,393.61l-9.71-26.18l-9.9,26.18H1084.87z"/>
		<path class="st1" d="M1128.87,423.39h-9.99v-59.66H1106v-9.28h35.75v9.28h-12.88V423.39z"/>
		<path class="st1" d="M1158.94,423.39h-9.99v-68.94h9.99V423.39z"/>
		<path class="st1" d="M1168.33,388.5c0-4.83,0.92-9.41,2.75-13.73c1.83-4.32,4.51-8.22,8.05-11.69c3.35-3.28,7.06-5.77,11.15-7.46
			c4.09-1.69,8.48-2.53,13.19-2.53c4.83,0,9.3,0.85,13.42,2.53c4.12,1.69,7.88,4.21,11.29,7.55c3.5,3.44,6.14,7.29,7.91,11.55
			c1.77,4.26,2.65,8.85,2.65,13.78c0,4.89-0.76,9.4-2.27,13.52c-1.52,4.12-3.79,7.82-6.82,11.1c-3.57,3.85-7.55,6.76-11.96,8.71
			c-4.4,1.96-9.18,2.94-14.32,2.94c-5.18,0-9.95-0.99-14.32-2.98c-4.37-1.99-8.29-4.94-11.77-8.85c-2.93-3.25-5.16-6.95-6.68-11.1
			C1169.09,397.67,1168.33,393.23,1168.33,388.5z M1178.75,388.59c0,3.6,0.6,7,1.8,10.2c1.2,3.2,2.92,5.97,5.16,8.31
			c2.37,2.46,5.1,4.37,8.19,5.73c3.09,1.36,6.25,2.04,9.47,2.04c7.13,0,13.1-2.53,17.9-7.6c4.8-5.07,7.2-11.36,7.2-18.87
			c0-3.19-0.58-6.23-1.73-9.11c-1.15-2.89-2.83-5.55-5.04-7.98c-2.62-2.81-5.42-4.88-8.4-6.23c-2.98-1.34-6.29-2.01-9.92-2.01
			c-3.25,0-6.35,0.62-9.28,1.85c-2.94,1.23-5.54,3.01-7.81,5.35c-2.37,2.43-4.21,5.26-5.54,8.48
			C1179.41,381.96,1178.75,385.25,1178.75,388.59z"/>
		<path class="st1" d="M1258.25,423.39h-9.99v-68.94h10.27l33.85,52.18l-0.47-52.18h9.85v68.94h-9.56l-34.61-53.74L1258.25,423.39z"
			/>
	</g>
	<g>
		<path class="st1" d="M516.05,201.43h-10.5v19.33h-5.88v-19.33H489.1v-5.82h10.57v-19.33h5.88v19.33h10.5V201.43z"/>
		<path class="st1" d="M533.57,207.65l19.5,7.97v5.92l-30.14-12.14l13.96-11.84l-13.45-11.7l29.63-11.29v5.88l-18.51,7.08
			l10.81,9.48L533.57,207.65z"/>
		<path class="st1" d="M564.6,220.76h-5.82v-44.41h5.82V220.76z"/>
		<path class="st1" d="M604.66,220.76h-32.91v-44.41h32.91v5.88h-27.03v32.64h27.03V220.76z"/>
		<path class="st1" d="M634.39,220.76h-5.95V193.8l-7.18,11.32c-1.08,2.05-1.77,4.7-2.09,7.94c-0.32,2.24-0.48,4.8-0.48,7.7h-5.88
			v-44.41h5.88l0.03,24.87c6.61-10.99,9.88-18.38,9.78-22.17v-1.3c0-0.57-0.02-1.04-0.07-1.4h5.95V220.76z"/>
		<path class="st1" d="M678.73,220.76h-5.82v-44.41h5.82V220.76z"/>
		<path class="st1" d="M743.7,201.43h-10.5v19.33h-5.88v-19.33h-10.57v-5.82h10.57v-19.33h5.88v19.33h10.5V201.43z"/>
		<path class="st1" d="M783.89,220.76h-32.91v-44.41h32.91v5.88h-27.03v32.64h27.03V220.76z"/>
		<path class="st1" d="M801.99,200.23c2.9,0,5.33,0.99,7.29,2.98c1.96,1.98,2.94,4.42,2.94,7.32c0,2.9-0.98,5.34-2.94,7.32
			c-1.96,1.98-4.39,2.98-7.29,2.98c-2.85,0-5.26-0.99-7.22-2.98c-1.96-1.98-2.94-4.42-2.94-7.32c0-2.9,0.98-5.34,2.94-7.32
			C796.73,201.22,799.14,200.23,801.99,200.23z M807.53,210.46c0-1.64-0.54-3-1.61-4.07c-1.07-1.07-2.38-1.61-3.93-1.61
			c-1.48,0-2.76,0.54-3.83,1.61c-1.07,1.07-1.61,2.43-1.61,4.07c0,1.6,0.54,2.94,1.61,4.04c1.07,1.09,2.35,1.64,3.83,1.64
			c1.55,0,2.86-0.55,3.93-1.64C807,213.4,807.53,212.05,807.53,210.46z"/>
		<path class="st1" d="M861.62,198.83c-0.05,6.07-2.23,11.23-6.55,15.48c-4.32,4.25-9.54,6.38-15.65,6.38
			c-6.09,0-11.26-2.14-15.5-6.41s-6.41-9.43-6.5-15.45c-0.05-6.16,2.08-11.44,6.36-15.86c4.29-4.41,9.5-6.62,15.63-6.62
			c6.16,0,11.41,2.21,15.75,6.62C859.52,187.38,861.67,192.67,861.62,198.83z M855.46,198.83c0.05-4.58-1.51-8.5-4.67-11.73
			c-3.16-3.24-6.95-4.84-11.38-4.79c-4.45,0.05-8.19,1.69-11.22,4.93c-3.03,3.24-4.55,7.08-4.55,11.53
			c0.05,4.33,1.58,8.08,4.62,11.24c3.03,3.16,6.75,4.76,11.15,4.81c4.38,0.05,8.14-1.52,11.27-4.7
			C853.83,206.92,855.42,203.16,855.46,198.83z M833.74,198.76c-0.09-1.6,0.4-3.01,1.47-4.24c1.07-1.23,2.5-1.82,4.28-1.78
			c1.62,0.05,2.97,0.66,4.05,1.85c1.08,1.19,1.57,2.6,1.45,4.24c-0.09,1.44-0.65,2.67-1.68,3.71c-1.03,1.04-2.3,1.56-3.83,1.56
			c-1.69,0.05-3.04-0.46-4.07-1.52C834.39,201.51,833.83,200.24,833.74,198.76z"/>
		<path class="st1" d="M913.11,198.83c-0.05,6.07-2.23,11.23-6.55,15.48c-4.32,4.25-9.54,6.38-15.65,6.38
			c-6.09,0-11.26-2.14-15.5-6.41s-6.41-9.43-6.5-15.45c-0.05-6.16,2.08-11.44,6.36-15.86c4.29-4.41,9.5-6.62,15.63-6.62
			c6.16,0,11.41,2.21,15.75,6.62C911.01,187.38,913.16,192.67,913.11,198.83z M906.95,198.83c0.05-4.58-1.51-8.5-4.67-11.73
			c-3.16-3.24-6.95-4.84-11.38-4.79c-4.45,0.05-8.19,1.69-11.22,4.93c-3.03,3.24-4.55,7.08-4.55,11.53
			c0.05,4.33,1.58,8.08,4.62,11.24c3.03,3.16,6.75,4.76,11.15,4.81c4.38,0.05,8.14-1.52,11.27-4.7
			C905.32,206.92,906.91,203.16,906.95,198.83z M885.23,198.76c-0.09-1.6,0.4-3.01,1.47-4.24c1.07-1.23,2.5-1.82,4.28-1.78
			c1.62,0.05,2.97,0.66,4.05,1.85c1.08,1.19,1.57,2.6,1.45,4.24c-0.09,1.44-0.65,2.67-1.68,3.71c-1.03,1.04-2.3,1.56-3.83,1.56
			c-1.69,0.05-3.04-0.46-4.07-1.52C885.88,201.51,885.32,200.24,885.23,198.76z"/>
		<path class="st1" d="M930.18,200.23c2.9,0,5.33,0.99,7.29,2.98c1.96,1.98,2.94,4.42,2.94,7.32c0,2.9-0.98,5.34-2.94,7.32
			c-1.96,1.98-4.39,2.98-7.29,2.98c-2.85,0-5.26-0.99-7.22-2.98c-1.96-1.98-2.94-4.42-2.94-7.32c0-2.9,0.98-5.34,2.94-7.32
			C924.92,201.22,927.33,200.23,930.18,200.23z M935.72,210.46c0-1.64-0.54-3-1.61-4.07c-1.07-1.07-2.38-1.61-3.93-1.61
			c-1.48,0-2.76,0.54-3.83,1.61c-1.07,1.07-1.61,2.43-1.61,4.07c0,1.6,0.54,2.94,1.61,4.04c1.07,1.09,2.35,1.64,3.83,1.64
			c1.55,0,2.86-0.55,3.93-1.64C935.19,213.4,935.72,212.05,935.72,210.46z"/>
		<path class="st1" d="M951.19,220.76h-5.82v-44.41h5.82V220.76z"/>
		<path class="st1" d="M968.57,207.65l19.5,7.97v5.92l-30.14-12.14l13.96-11.84l-13.45-11.7l29.63-11.29v5.88l-18.51,7.08
			l10.81,9.48L968.57,207.65z"/>
		<path class="st1" d="M999.6,220.76h-5.82v-44.41h5.82V220.76z"/>
		<path class="st1" d="M1043.25,220.76h-5.82v-44.41h5.82V220.76z"/>
		<path class="st1" d="M1091.38,207.65l19.5,7.97v5.92l-30.14-12.14l13.96-11.84l-13.45-11.7l29.63-11.29v5.88l-18.51,7.08
			l10.81,9.48L1091.38,207.65z"/>
		<path class="st1" d="M1122.41,220.76h-5.82v-44.41h5.82V220.76z"/>
		<path class="st1" d="M1129.56,176.28h5.88v19.06h22.78v-19.06h5.88v24.94h-14.3v19.53h-5.95v-19.53h-14.3V176.28z"/>
		<path class="st1" d="M1204.18,220.76h-32.91v-44.41h32.91v5.88h-27.03v32.64h27.03V220.76z"/>
		<path class="st1" d="M1222.55,207.65l19.5,7.97v5.92l-30.14-12.14l13.96-11.84l-13.45-11.7l29.63-11.29v5.88l-18.51,7.08
			l10.81,9.48L1222.55,207.65z"/>
		<path class="st1" d="M1292.2,198.83c-0.05,6.07-2.23,11.23-6.55,15.48c-4.32,4.25-9.54,6.38-15.65,6.38
			c-6.09,0-11.26-2.14-15.5-6.41c-4.24-4.28-6.41-9.43-6.5-15.45c-0.05-6.16,2.07-11.44,6.36-15.86c4.29-4.41,9.5-6.62,15.63-6.62
			c6.16,0,11.41,2.21,15.75,6.62C1290.1,187.38,1292.25,192.67,1292.2,198.83z M1286.05,198.83c0.05-4.58-1.51-8.5-4.67-11.73
			c-3.16-3.24-6.95-4.84-11.37-4.79c-4.45,0.05-8.19,1.69-11.22,4.93c-3.03,3.24-4.55,7.08-4.55,11.53
			c0.05,4.33,1.59,8.08,4.62,11.24c3.03,3.16,6.75,4.76,11.15,4.81c4.38,0.05,8.14-1.52,11.27-4.7
			C1284.41,206.92,1286,203.16,1286.05,198.83z M1264.32,198.76c-0.09-1.6,0.4-3.01,1.47-4.24c1.07-1.23,2.5-1.82,4.28-1.78
			c1.62,0.05,2.97,0.66,4.05,1.85c1.08,1.19,1.57,2.6,1.45,4.24c-0.09,1.44-0.65,2.67-1.68,3.71c-1.03,1.04-2.3,1.56-3.83,1.56
			c-1.69,0.05-3.04-0.46-4.07-1.52C1264.97,201.51,1264.41,200.24,1264.32,198.76z"/>
		<path class="st1" d="M1305.07,220.76h-5.82v-44.41h5.82V220.76z"/>
	</g>
	<rect x="680.29" y="354.46" class="st1" width="6.33" height="24.92"/>
</g>
</svg>
